<svg width="278" height="76" viewBox="0 0 278 76" fill="none" xmlns="http://www.w3.org/2000/svg">
<g clip-path="url(#clip0_578_1021)">
<mask id="path-1-inside-1_578_1021" fill="white">
<path d="M0 16C0 7.16344 7.16344 0 16 0H262C270.837 0 278 7.16344 278 16V60C278 68.8366 270.837 76 262 76H16C7.16344 76 0 68.8366 0 60V16Z"/>
</mask>
<path d="M0 16C0 7.16344 7.16344 0 16 0H262C270.837 0 278 7.16344 278 16V60C278 68.8366 270.837 76 262 76H16C7.16344 76 0 68.8366 0 60V16Z" fill="url(#paint0_linear_578_1021)"/>
<circle cx="171" cy="7" r="2" fill="white" fill-opacity="0.16"/>
<circle cx="171" cy="17" r="2" fill="white" fill-opacity="0.16"/>
<circle cx="181" cy="7" r="2" fill="white" fill-opacity="0.16"/>
<circle cx="181" cy="17" r="2" fill="white" fill-opacity="0.16"/>
<circle cx="181" cy="27" r="2" fill="white" fill-opacity="0.16"/>
<circle cx="181" cy="37" r="2" fill="white" fill-opacity="0.16"/>
<circle cx="191" cy="7" r="2" fill="white" fill-opacity="0.16"/>
<circle cx="191" cy="17" r="2" fill="white" fill-opacity="0.16"/>
<circle cx="191" cy="27" r="2" fill="white" fill-opacity="0.16"/>
<circle cx="191" cy="37" r="2" fill="white" fill-opacity="0.16"/>
<circle cx="191" cy="47" r="2" fill="white" fill-opacity="0.16"/>
<circle cx="191" cy="57" r="2" fill="white" fill-opacity="0.16"/>
<circle cx="201" cy="7" r="2" fill="white" fill-opacity="0.16"/>
<circle cx="201" cy="17" r="2" fill="white" fill-opacity="0.16"/>
<circle cx="201" cy="27" r="2" fill="white" fill-opacity="0.16"/>
<circle cx="201" cy="37" r="2" fill="white" fill-opacity="0.16"/>
<circle cx="201" cy="47" r="2" fill="white" fill-opacity="0.16"/>
<circle cx="201" cy="57" r="2" fill="white" fill-opacity="0.16"/>
<circle cx="201" cy="67" r="2" fill="white" fill-opacity="0.16"/>
<circle cx="211" cy="7" r="2" fill="white" fill-opacity="0.16"/>
<circle cx="211" cy="17" r="2" fill="white" fill-opacity="0.16"/>
<circle cx="211" cy="27" r="2" fill="white" fill-opacity="0.16"/>
<circle cx="211" cy="37" r="2" fill="white" fill-opacity="0.16"/>
<circle cx="211" cy="47" r="2" fill="white" fill-opacity="0.16"/>
<circle cx="211" cy="57" r="2" fill="white" fill-opacity="0.16"/>
<circle cx="211" cy="67" r="2" fill="white" fill-opacity="0.16"/>
<circle cx="221" cy="7" r="2" fill="white" fill-opacity="0.16"/>
<circle cx="221" cy="17" r="2" fill="white" fill-opacity="0.16"/>
<circle cx="221" cy="27" r="2" fill="white" fill-opacity="0.16"/>
<circle cx="221" cy="37" r="2" fill="white" fill-opacity="0.16"/>
<circle cx="221" cy="47" r="2" fill="white" fill-opacity="0.16"/>
<circle cx="221" cy="57" r="2" fill="white" fill-opacity="0.16"/>
<circle cx="221" cy="67" r="2" fill="white" fill-opacity="0.16"/>
<circle cx="221" cy="77" r="2" fill="white" fill-opacity="0.16"/>
<circle cx="231" cy="17" r="2" fill="white" fill-opacity="0.16"/>
<circle cx="231" cy="27" r="2" fill="white" fill-opacity="0.16"/>
<circle cx="231" cy="37" r="2" fill="white" fill-opacity="0.16"/>
<circle cx="231" cy="47" r="2" fill="white" fill-opacity="0.16"/>
<circle cx="231" cy="57" r="2" fill="white" fill-opacity="0.16"/>
<circle cx="231" cy="67" r="2" fill="white" fill-opacity="0.16"/>
<circle cx="231" cy="77" r="2" fill="white" fill-opacity="0.16"/>
<circle cx="241" cy="27" r="2" fill="white" fill-opacity="0.16"/>
<circle cx="241" cy="37" r="2" fill="white" fill-opacity="0.16"/>
<circle cx="241" cy="47" r="2" fill="white" fill-opacity="0.16"/>
<circle cx="241" cy="57" r="2" fill="white" fill-opacity="0.16"/>
<circle cx="241" cy="67" r="2" fill="white" fill-opacity="0.16"/>
<circle cx="241" cy="77" r="2" fill="white" fill-opacity="0.16"/>
<circle cx="251" cy="37" r="2" fill="white" fill-opacity="0.16"/>
<circle cx="251" cy="47" r="2" fill="white" fill-opacity="0.16"/>
<circle cx="251" cy="57" r="2" fill="white" fill-opacity="0.16"/>
<circle cx="251" cy="67" r="2" fill="white" fill-opacity="0.16"/>
<circle cx="251" cy="77" r="2" fill="white" fill-opacity="0.16"/>
<circle cx="261" cy="47" r="2" fill="white" fill-opacity="0.16"/>
<circle cx="261" cy="57" r="2" fill="white" fill-opacity="0.16"/>
<circle cx="261" cy="67" r="2" fill="white" fill-opacity="0.16"/>
<circle cx="261" cy="77" r="2" fill="white" fill-opacity="0.16"/>
<circle cx="271" cy="47" r="2" fill="white" fill-opacity="0.16"/>
<circle cx="271" cy="57" r="2" fill="white" fill-opacity="0.16"/>
<circle cx="271" cy="67" r="2" fill="white" fill-opacity="0.16"/>
<circle cx="271" cy="77" r="2" fill="white" fill-opacity="0.16"/>
<circle cx="231" cy="7" r="2" fill="white" fill-opacity="0.08"/>
<circle cx="241" cy="7" r="2" fill="white" fill-opacity="0.08"/>
<circle cx="241" cy="17" r="2" fill="white" fill-opacity="0.08"/>
<circle cx="251" cy="7" r="2" fill="white" fill-opacity="0.08"/>
<circle cx="251" cy="17" r="2" fill="white" fill-opacity="0.08"/>
<circle cx="251" cy="27" r="2" fill="white" fill-opacity="0.08"/>
<circle cx="261" cy="7" r="2" fill="white" fill-opacity="0.08"/>
<circle cx="261" cy="17" r="2" fill="white" fill-opacity="0.08"/>
<circle cx="261" cy="27" r="2" fill="white" fill-opacity="0.08"/>
<circle cx="261" cy="37" r="2" fill="white" fill-opacity="0.08"/>
<circle cx="271" cy="7" r="2" fill="white" fill-opacity="0.08"/>
<circle cx="271" cy="17" r="2" fill="white" fill-opacity="0.08"/>
<circle cx="271" cy="27" r="2" fill="white" fill-opacity="0.08"/>
<circle cx="271" cy="37" r="2" fill="white" fill-opacity="0.08"/>
<path d="M316.229 69.5155C292.496 100.433 242.755 102.081 205.129 73.1979C167.502 44.3146 156.239 -4.16309 179.972 -35.0801C203.705 -65.9971 207.551 -1.07521 245.177 27.8081C282.803 56.6914 339.962 38.5985 316.229 69.5155Z" fill="url(#paint1_linear_578_1021)" fill-opacity="0.8"/>
</g>
<path d="M0 16C0 6.61116 7.61116 -1 17 -1H261C270.389 -1 278 6.61116 278 16C278 7.71573 270.837 1 262 1H16C7.16344 1 0 7.71573 0 16ZM0 16M278 76H0H278M278 76M0 76V0V76M0 76M278 0V76V0" fill="white" fill-opacity="0.08" mask="url(#path-1-inside-1_578_1021)"/>
<defs>
<linearGradient id="paint0_linear_578_1021" x1="125.5" y1="-16.3122" x2="127.985" y2="77.8922" gradientUnits="userSpaceOnUse">
<stop stop-color="#F53762"/>
<stop offset="1" stop-color="#550D2B"/>
</linearGradient>
<linearGradient id="paint1_linear_578_1021" x1="172" y1="-10" x2="297.053" y2="21.2481" gradientUnits="userSpaceOnUse">
<stop offset="0.0624569" stop-color="#D22E57"/>
<stop offset="1" stop-color="#80193A"/>
</linearGradient>
<clipPath id="clip0_578_1021">
<path d="M0 16C0 7.16344 7.16344 0 16 0H262C270.837 0 278 7.16344 278 16V60C278 68.8366 270.837 76 262 76H16C7.16344 76 0 68.8366 0 60V16Z" fill="white"/>
</clipPath>
</defs>
</svg>
