<svg width="557" height="330" viewBox="0 0 557 330" fill="none" xmlns="http://www.w3.org/2000/svg">
<path d="M474.099 127.566C459.304 93.5516 466.418 68.0054 459.076 39.5075C438.833 -39.0706 318.903 16.9252 290.662 58.4017C270.327 88.2682 243.151 123.51 206.131 140.119C150.029 165.29 94.7586 112.539 47.4965 150.361C0.887326 187.659 -12.1485 240.319 11.6324 292.556C35.5059 344.996 103.1 331.841 125.632 311.266C264.325 184.623 313.646 156.924 390.924 202.586C417.927 218.542 409.059 213.648 440.44 229.073C504.812 260.713 583.828 227.99 547.594 205.514C519.603 188.151 492.509 169.896 474.099 127.566Z" fill="url(#paint0_linear_2331_5110)" fill-opacity="0.17"/>
<defs>
<linearGradient id="paint0_linear_2331_5110" x1="555.451" y1="276.569" x2="339.306" y2="93.0938" gradientUnits="userSpaceOnUse">
<stop stop-color="#74DF4F"/>
<stop offset="0.850962" stop-color="#74DF4F" stop-opacity="0"/>
</linearGradient>
</defs>
</svg>
