<svg width="992" height="1024" viewBox="0 0 992 1024" fill="none" xmlns="http://www.w3.org/2000/svg">
<g clip-path="url(#clip0_3207_57384)">
<path d="M357.479 1117.47C702.921 1117.47 982.957 1018.39 982.957 896.172C982.957 773.953 702.921 674.875 357.479 674.875C12.0363 674.875 -268 773.953 -268 896.172C-268 1018.39 12.0363 1117.47 357.479 1117.47Z" fill="white" fill-opacity="0.05"/>
<path d="M357.478 991.927C595.046 991.927 787.633 923.789 787.633 839.737C787.633 755.685 595.046 687.547 357.478 687.547C119.91 687.547 -72.6768 755.685 -72.6768 839.737C-72.6768 923.789 119.91 991.927 357.478 991.927Z" fill="#0C1110"/>
<path d="M356.602 853.329C440.562 853.329 508.625 829.248 508.625 799.543C508.625 769.838 440.562 745.758 356.602 745.758C272.642 745.758 204.579 769.838 204.579 799.543C204.579 829.248 272.642 853.329 356.602 853.329Z" fill="white" fill-opacity="0.1"/>
<path d="M632.097 836.462C675.251 836.462 710.234 824.085 710.234 808.817C710.234 793.549 675.251 781.172 632.097 781.172C588.943 781.172 553.96 793.549 553.96 808.817C553.96 824.085 588.943 836.462 632.097 836.462Z" fill="white" fill-opacity="0.1"/>
<path d="M110.691 802.928C142.092 802.928 167.548 793.921 167.548 782.811C167.548 771.702 142.092 762.695 110.691 762.695C79.2904 762.695 53.835 771.702 53.835 782.811C53.835 793.921 79.2904 802.928 110.691 802.928Z" fill="white" fill-opacity="0.1"/>
<path d="M134.335 847.015C134.335 858.838 107.247 868.422 73.8337 868.422C40.42 868.422 13.332 858.838 13.332 847.015C13.332 835.193 40.42 825.609 73.8337 825.609C107.247 825.609 134.335 835.193 134.335 847.015Z" fill="black" fill-opacity="0.1"/>
<path d="M118.881 839.679C142.96 839.679 162.48 832.773 162.48 824.254C162.48 815.734 142.96 808.828 118.881 808.828C94.8014 808.828 75.2812 815.734 75.2812 824.254C75.2812 832.773 94.8014 839.679 118.881 839.679Z" fill="white" fill-opacity="0.1"/>
<path d="M37.4599 -96.7616C37.4599 -96.7616 84.731 -92.2507 97.2366 2.1234C109.742 96.4975 63.6287 134.735 96.5788 195.708C129.529 256.681 168.257 235.677 178.497 283.381C188.738 331.085 163.884 358.309 185.534 407.646C203.855 449.397 272.22 445.964 271.285 490.561C269.648 568.621 376.458 586.799 425.676 593.096C425.676 593.096 286.605 601.295 255.115 533.032C238.849 497.769 176.533 526.182 142.781 495.053C100.137 455.721 148.512 420.621 120.333 395.423C92.1514 370.223 10.0788 370.169 -24.779 300.62C-59.6376 231.069 -52.1205 181.015 -45.6998 146.521C-39.2782 112.03 -172.763 194.312 -235.379 -2.29086L37.4599 -96.7616Z" fill="url(#paint0_linear_3207_57384)"/>
<path d="M592.199 771.443C623.6 771.443 649.055 762.437 649.055 751.327C649.055 740.217 623.6 731.211 592.199 731.211C560.798 731.211 535.343 740.217 535.343 751.327C535.343 762.437 560.798 771.443 592.199 771.443Z" fill="black" fill-opacity="0.1"/>
<path d="M72.9858 810.195C49.6381 810.195 30.7109 817.984 30.7109 827.581V843.159C30.7109 852.771 49.6381 860.544 72.9858 860.544C96.3491 860.544 115.276 852.771 115.276 843.159V827.581C115.276 817.984 96.3491 810.195 72.9858 810.195Z" fill="#008658"/>
<path d="M155.701 813.045C155.701 807.761 152.704 803.477 149.008 803.477C148.633 803.477 148.268 803.531 147.91 803.615V803.611L147.742 803.651C147.71 803.66 147.675 803.665 147.643 803.676L93.6768 816.791L104.095 836.527L149.929 822.521L149.928 822.51C153.187 821.87 155.701 817.882 155.701 813.045Z" fill="#008658"/>
<path d="M72.9878 820.008C56.2288 820.008 42.6436 825.599 42.6436 832.486C42.6436 839.373 56.2288 844.953 72.9878 844.953C89.7576 844.953 103.343 839.373 103.343 832.486C103.343 825.599 89.7576 820.008 72.9878 820.008Z" fill="#A5A7AA"/>
<path d="M72.9858 810.195C49.6381 810.195 30.7109 817.984 30.7109 827.581C30.7109 837.177 49.6381 844.95 72.9858 844.95C96.3491 844.95 115.276 837.177 115.276 827.581C115.276 817.984 96.3491 810.195 72.9858 810.195ZM72.9858 838.298C56.1755 838.298 42.556 832.69 42.556 825.789C42.556 818.872 56.1755 813.28 72.9858 813.28C89.7962 813.28 103.431 818.872 103.431 825.789C103.431 832.69 89.7962 838.298 72.9858 838.298Z" fill="black" fill-opacity="0.4"/>
<path d="M49.3579 833.395C48.7306 833.395 48.1064 833.144 47.6457 832.649C46.771 831.703 46.8208 830.232 47.7625 829.354C48.0551 829.081 55.0298 822.675 65.8974 821.981C67.194 821.906 68.2944 822.876 68.3769 824.163C68.4594 825.451 67.4819 826.562 66.1962 826.645C57.0517 827.229 51.0047 832.72 50.944 832.775C50.4941 833.189 49.9244 833.395 49.3579 833.395Z" fill="white"/>
<path d="M76.9093 823.855C76.9093 825.183 75.5318 826.257 73.8321 826.257C72.1324 826.257 70.7549 825.183 70.7549 823.855C70.7549 822.53 72.1324 821.453 73.8321 821.453C75.5318 821.453 76.9093 822.53 76.9093 823.855Z" fill="white"/>
<path d="M243.258 421.336C243.76 421.334 244.169 421.738 244.171 422.24C244.222 433.812 250.037 445.272 259.342 452.151C262.654 454.596 267.711 457.34 273 456.527C273.343 456.474 273.683 456.405 274.016 456.318C272.299 454.868 270.792 453.163 269.581 451.222C268.16 448.951 266.558 445.431 266.987 441.557C267.404 437.792 269.845 434.57 273.061 433.542C275.866 432.644 279.195 433.44 281.549 435.573C283.626 437.459 284.942 440.331 285.161 443.453C285.537 448.836 282.401 454.112 277.776 456.738C284.232 460.676 292.808 461.409 299.481 457.862C305.042 454.905 308.878 449.189 310.203 442.994C307.246 439.29 305.811 434.373 306.514 429.654C306.573 429.257 306.754 428.048 307.807 427.627C308.882 427.192 310.045 427.889 310.699 429.363C312.555 433.528 312.984 438.144 312.211 442.559C312.98 443.41 313.844 444.175 314.797 444.827C319.525 448.071 326.05 448.352 331.036 445.524C336.022 442.697 339.13 436.955 338.774 431.233C338.743 430.731 339.124 430.298 339.624 430.269C340.124 430.239 340.555 430.619 340.587 431.119C340.988 437.518 337.51 443.943 331.93 447.106C326.353 450.269 319.053 449.956 313.766 446.327C313.047 445.833 312.37 445.28 311.742 444.683C310.093 450.862 306.071 456.423 300.333 459.47C292.601 463.58 282.852 462.562 275.782 457.673C274.973 457.974 274.136 458.194 273.274 458.328C267.365 459.237 261.849 456.267 258.261 453.616C248.502 446.405 242.404 434.388 242.35 422.255C242.35 422.017 242.439 421.801 242.587 421.639C242.756 421.452 242.994 421.338 243.258 421.336ZM283.352 443.577C283.165 440.918 282.065 438.489 280.332 436.916C278.451 435.213 275.815 434.566 273.618 435.27C271.109 436.075 269.128 438.741 268.794 441.756C268.424 445.11 269.855 448.232 271.124 450.258C272.416 452.33 274.106 454.112 276.057 455.574C280.5 453.448 283.694 448.494 283.352 443.577ZM309.043 430.101C308.823 429.607 308.536 429.34 308.508 429.3C308.514 429.286 308.392 429.404 308.315 429.92C307.77 433.562 308.652 437.339 310.608 440.431C310.955 436.908 310.482 433.329 309.043 430.101Z" fill="#050A08"/>
<path d="M261.286 408.163C267.921 405.625 275.442 402.746 283.296 402.226C292.024 401.651 299.85 404.295 304.765 409.483C306.137 410.93 307.232 412.548 308.023 414.239C314.365 414.857 320.473 417.392 325.378 421.538C331.793 426.963 335.836 434.878 336.46 443.259C336.496 443.761 336.122 444.196 335.622 444.233C335.122 444.271 334.679 443.883 334.648 443.395C334.059 435.496 330.25 428.038 324.205 422.924C319.822 419.221 314.418 416.879 308.773 416.152C309.468 418.306 309.661 420.53 309.312 422.648C308.468 427.74 304.102 431.89 299.372 432.096C296.778 432.209 294.132 431.01 292.294 428.886C290.642 426.975 289.937 424.603 290.359 422.378C291.372 417.066 297.327 414.666 302.118 414.221C303.386 414.103 304.657 414.066 305.923 414.103C305.269 412.914 304.439 411.775 303.45 410.729C298.907 405.936 291.605 403.494 283.42 404.037C275.84 404.539 268.456 407.367 261.941 409.861C261.471 410.039 260.947 409.806 260.768 409.336C260.756 409.304 260.746 409.271 260.736 409.237C260.618 408.798 260.849 408.332 261.286 408.163ZM306.783 415.967C305.287 415.875 303.783 415.895 302.283 416.036C298.12 416.42 292.965 418.404 292.14 422.721C291.821 424.398 292.378 426.213 293.666 427.701C295.122 429.382 297.276 430.372 299.291 430.283C303.195 430.112 306.809 426.63 307.517 422.353C307.779 420.766 307.684 419.103 307.263 417.465C307.131 416.961 306.972 416.463 306.783 415.967Z" fill="#050A08"/>
<path d="M206.186 711.171C205.625 702.193 210.355 679.655 221.665 678.684C232.974 677.712 224.594 702.911 219.118 712.33C213.658 721.717 206.485 715.944 206.186 711.171Z" fill="#008658"/>
<path d="M221.771 707.026C223.418 703.262 225.038 698.743 226.081 694.44C220.845 692.94 215.798 690.832 211.051 688.18C209.009 692.389 207.632 697.42 206.868 701.955C211.427 704.63 216.535 706.349 221.771 707.026Z" fill="black" fill-opacity="0.4"/>
<path d="M130.346 586.224C130.346 586.224 134.765 580.169 146.883 583.836C151.507 585.234 160.451 588.751 157.774 599.566C154.674 612.087 131.584 681.343 192.965 706.914C192.969 706.916 192.975 706.912 192.975 706.912C193.301 707.508 201.236 729.112 181.345 735.538C181.345 735.538 121.272 706.335 118.969 643.792C117.711 609.648 130.346 586.224 130.346 586.224Z" fill="#008658"/>
<path d="M192.97 706.923C193.09 706.905 220.019 702.691 237.886 709.783C237.886 709.783 247.384 741.305 228.214 759.916C228.214 759.916 215.041 760.361 181.344 735.543L192.968 706.925L192.97 706.923Z" fill="#008658"/>
<path d="M119.864 653.754C128.92 647.685 140.247 644.951 151.075 646.25C150.557 635.213 151.986 624.694 153.677 616.28C143.065 613.677 131.934 613.175 121.141 614.833C119.58 623.122 118.565 632.91 118.972 643.782C119.094 647.203 119.409 650.528 119.864 653.754Z" fill="#008658"/>
<path d="M152.86 714.889C154.421 712.013 156.187 709.259 158.295 706.722C162.639 701.486 167.399 697.535 172.412 694.374C164.553 687.455 159.352 679.401 156.043 670.938C146.473 673.541 137.375 678.025 129.438 683.999C135.889 696.701 144.505 706.966 152.86 714.889Z" fill="#008658"/>
<path d="M231.52 710.845C240.086 708.092 267.632 712.625 265.758 721.925C263.516 733.051 245.305 727.037 235.057 723.341C223.93 719.329 228.802 711.717 231.52 710.845Z" fill="#008658"/>
<path d="M238.479 724.553C242.322 725.858 246.737 727.201 250.922 727.862C249.731 725.338 249.168 722.522 249.308 719.715C249.455 716.892 250.315 714.101 251.748 711.684C247.721 710.735 243.398 710.176 239.617 710.07C238.932 711.32 238.361 712.971 237.956 715.416C237.501 718.075 237.69 721.427 238.479 724.553Z" fill="black" fill-opacity="0.4"/>
<path d="M230.468 730.743C239.033 727.991 266.579 732.524 264.705 741.823C262.465 752.95 244.255 746.935 234.004 743.24C222.878 739.227 227.752 731.615 230.468 730.743Z" fill="#008658"/>
<path d="M237.426 744.451C241.27 745.756 245.685 747.1 249.87 747.76C248.679 745.236 248.116 742.421 248.256 739.614C248.403 736.79 249.262 733.999 250.695 731.583C246.669 730.633 242.345 730.074 238.565 729.969C237.88 731.221 237.308 732.869 236.904 735.315C236.449 737.973 236.636 741.325 237.426 744.451Z" fill="black" fill-opacity="0.4"/>
<path d="M225.652 746.265C234.616 745.503 260.444 756.095 256.536 764.736C251.859 775.078 235.459 765.137 226.298 759.236C216.352 752.833 222.808 746.507 225.652 746.265Z" fill="#008658"/>
<path d="M229.363 761.181C232.817 763.315 236.819 765.614 240.748 767.193C240.152 764.468 240.236 761.596 241.002 758.892C241.778 756.172 243.24 753.648 245.179 751.611C241.467 749.784 237.38 748.27 233.717 747.32C232.77 748.385 231.841 749.865 230.9 752.158C229.861 754.65 229.294 757.957 229.363 761.181Z" fill="black" fill-opacity="0.4"/>
<path d="M329.555 462.955C333.228 463.004 336.319 462.988 336.773 462.809C342.129 460.737 351.353 434.344 342.001 414.649C342.001 414.649 338.279 414.115 333.618 413.727C337.712 428.76 336.838 445.121 331.045 459.605C330.589 460.737 330.104 461.853 329.555 462.955Z" fill="#008658"/>
<path d="M371.746 381.453C371.746 381.453 352.185 382.516 352.185 398.81C352.185 398.81 334.993 399.035 338.329 418.358C338.329 418.358 325.391 418.766 324.936 447.203C324.483 475.639 316.935 583.146 320.936 595.488C320.936 595.488 332.668 619.006 417.13 620.286C474.434 621.154 519.279 622.5 532.115 586.479C533.416 582.827 543.048 430.141 493.728 395.653C493.728 395.653 486.63 377.908 474.15 381.803C474.15 381.803 468.424 370.853 456.328 372.692C456.328 372.692 441.766 359.074 409.927 361.923C375.276 365.025 371.746 381.453 371.746 381.453Z" fill="#008658" fill-opacity="0.3"/>
<path d="M355.59 470.786C355.59 470.786 351.35 534.027 356.32 546.91C361.289 559.793 447.085 554.337 453.429 544.176C459.773 534.015 452.744 473.806 444.398 467.227C444.398 467.227 375.315 474.814 355.59 470.786Z" fill="black" fill-opacity="0.2"/>
<path d="M261.848 481.603C261.848 481.603 193.533 478.525 173.971 487.28C153.225 496.563 142.174 543.773 168.952 570.49C186.01 587.507 203.848 585.788 263.39 589.727C263.39 589.727 275.877 585.802 274.143 534.864C273.397 512.932 274.304 490.851 261.848 481.603Z" fill="#E88000"/>
<path d="M359.101 473.625C359.101 473.625 353.965 535.927 359.967 546.434C359.967 546.434 419.727 555.766 450.842 541.06C450.842 541.06 450.909 489.337 441.752 473.625C441.752 473.625 376.761 481.162 359.101 473.625Z" fill="#008658" fill-opacity="0.3"/>
<path d="M532.115 586.469C528.19 597.48 521.267 605.003 511.909 610.109C511.854 610.09 511.836 610.072 511.836 610.072C517.505 589.612 510.272 472.903 503.878 436.399C497.465 399.895 489.615 400.513 489.615 400.513L456.326 372.676C468.426 370.841 474.152 381.799 474.152 381.799C486.637 377.892 493.723 395.645 493.723 395.645C543.055 430.131 533.424 582.816 532.115 586.469Z" fill="#008658"/>
<path d="M466.819 459.558C466.819 461.479 465.262 463.038 463.339 463.038C461.418 463.038 459.859 461.481 459.859 459.558C459.859 457.637 461.416 456.078 463.339 456.078C465.262 456.078 466.819 457.635 466.819 459.558Z" fill="#008658"/>
<path d="M473.78 554.441C473.78 556.362 472.223 557.921 470.3 557.921C468.377 557.921 466.82 556.364 466.82 554.441C466.82 552.52 468.377 550.961 470.3 550.961C472.223 550.961 473.78 552.518 473.78 554.441Z" fill="#008658"/>
<path d="M342.975 559.503C342.975 561.424 341.418 562.983 339.496 562.983C337.573 562.983 336.016 561.426 336.016 559.503C336.016 557.582 337.573 556.023 339.496 556.023C341.418 556.023 342.975 557.582 342.975 559.503Z" fill="#008658"/>
<path d="M343.793 463.038C345.715 463.038 347.273 461.48 347.273 459.558C347.273 457.636 345.715 456.078 343.793 456.078C341.871 456.078 340.313 457.636 340.313 459.558C340.313 461.48 341.871 463.038 343.793 463.038Z" fill="#008658"/>
<path d="M359.346 566.633C359.346 566.633 352.835 579.048 359.1 587.225C359.1 587.225 410.79 596.996 449.251 587.225C449.251 587.225 446.526 570.873 447.737 566.633C447.737 566.633 400.541 573.637 359.346 566.633Z" fill="black" fill-opacity="0.3"/>
<path d="M447.738 566.633H453.117L454.401 586.014L449.253 587.225C449.253 587.225 446.452 572.273 447.738 566.633Z" fill="black" fill-opacity="0.3"/>
<path d="M401.269 591.472C392.783 591.218 384.917 590.6 378.321 589.909C376.595 582.46 376.54 574.191 376.794 568.812C384.681 569.467 392.494 569.739 399.926 569.758C399.635 574.919 399.544 583.586 401.269 591.472Z" fill="#008658"/>
<path d="M449.258 587.236C441.643 589.163 433.521 590.344 425.382 590.961C423.547 583.111 423.583 574.318 423.874 568.976C438.155 568.068 447.731 566.633 447.731 566.633C446.532 570.881 449.258 587.236 449.258 587.236Z" fill="#008658"/>
<path d="M403.94 476.603C403.94 476.603 414.207 482.346 416.242 480.801C416.951 480.274 417.496 478.293 417.823 475.805C413.445 476.114 408.737 476.404 403.94 476.603ZM375.194 490.903C367.198 494.846 361.149 491.031 358.114 487.923C357.878 492.102 357.624 496.918 357.443 501.951C359.732 502.532 362.403 502.896 365.511 502.932L368.781 513.925C368.781 513.925 370.525 517.413 376.668 516.287C382.829 515.179 383.918 513.215 383.683 511.508C383.465 509.782 380.666 499.696 380.666 499.696C380.666 499.66 380.685 493.81 390.478 491.919C390.478 491.919 396.094 501.587 400.2 501.367C403.143 501.221 409.757 499.204 408.213 490.029C408.213 490.029 402.761 485.651 400.344 484.724C400.344 484.724 401.507 479.49 403.942 476.601C398.854 476.837 393.639 476.984 388.624 476.984C388.224 480.474 385.589 485.761 375.194 490.903Z" fill="#008658" fill-opacity="0.4"/>
<path d="M423.965 548.062C416.66 548.953 409.156 549.317 401.942 549.353C400.397 546.392 400.669 542.43 400.562 539.704C400.326 533.799 402.088 527.567 412.499 526.531C426.073 525.167 425.728 536.216 425.728 536.216C426.49 541.212 426.018 545.192 423.965 548.062Z" fill="#008658" fill-opacity="0.4"/>
<path d="M210.914 516.997C210.437 516.997 209.959 516.81 209.603 516.438L198.257 504.622C197.564 503.899 197.586 502.748 198.31 502.053C199.032 501.358 200.186 501.382 200.879 502.106L212.225 513.922C212.919 514.645 212.896 515.796 212.173 516.491C211.821 516.828 211.368 516.997 210.914 516.997Z" fill="#050A08"/>
<path d="M198.906 516.71C198.428 516.71 197.951 516.523 197.595 516.151C196.902 515.428 196.924 514.277 197.648 513.582L209.657 502.053C210.378 501.358 211.533 501.382 212.226 502.106C212.919 502.829 212.897 503.98 212.173 504.675L200.164 516.204C199.815 516.542 199.359 516.71 198.906 516.71Z" fill="#050A08"/>
<path d="M212.834 563.747C212.357 563.747 211.881 563.56 211.523 563.188L200.175 551.372C199.482 550.649 199.504 549.498 200.228 548.803C200.95 548.108 202.1 548.132 202.797 548.854L214.145 560.67C214.839 561.393 214.816 562.544 214.093 563.239C213.741 563.578 213.288 563.747 212.834 563.747Z" fill="#050A08"/>
<path d="M200.83 563.461C200.352 563.461 199.875 563.274 199.519 562.902C198.826 562.178 198.848 561.028 199.572 560.333L211.579 548.804C212.3 548.108 213.453 548.131 214.148 548.856C214.841 549.58 214.819 550.731 214.095 551.426L202.088 562.955C201.737 563.292 201.281 563.461 200.83 563.461Z" fill="#050A08"/>
<path d="M561.011 714.18C561.011 714.18 522.011 729.935 505.201 753.402C505.201 753.402 553.716 771.136 600.447 748.651C600.447 748.651 600.16 727.689 598.001 716.251L561.011 714.18Z" fill="#008658"/>
<path d="M600.453 748.644C553.718 771.14 505.201 753.395 505.201 753.395C505.201 753.395 505.201 753.395 505.219 753.376C506.327 752.468 541.543 723.395 567.908 714.547L598.001 716.248C600.162 727.694 600.453 748.644 600.453 748.644Z" fill="#008658"/>
<path d="M561.011 696.453C561.011 696.453 559.857 710.877 561.011 714.17C561.011 714.17 572.957 724.906 598.003 716.241C598.003 716.241 599.788 699.689 598.952 696.984C596.611 689.404 562.883 689.107 561.011 696.453Z" fill="#008658"/>
<path d="M598.944 696.983C599.107 702.434 594.182 702.513 584.915 702.694C573.868 702.93 561.53 701.113 561.021 696.462C562.892 689.104 596.619 689.405 598.944 696.983Z" fill="#008658"/>
<path d="M445.624 518.577C444.189 517.923 437.357 521.649 435.595 522.647C433.542 518.904 430.69 515.577 426.765 513.524C427.364 512.126 429.344 507.093 428.891 503.804C428.364 499.934 423.057 498.808 420.661 500.405C418.697 501.696 417.589 508.4 417.262 510.762C410.849 510.036 405.251 511.453 401.727 512.778C400.601 510.67 398.147 506.347 396.566 505.31C394.44 503.93 392.023 504.566 389.498 508.036C386.953 511.524 392.931 518.03 392.931 518.03C393.005 518.067 393.06 518.067 393.133 518.104C389.297 521.775 387.118 526.116 385.955 530.387C385.901 530.369 385.846 530.314 385.809 530.295C385.809 530.295 378.849 528.334 375.215 530.295C373.235 531.367 373.851 539.69 376.668 540.453C379.467 541.199 382.701 542.07 384.772 541.833C384.935 545.321 385.48 547.955 385.718 548.937C387.825 549.047 390.006 549.154 392.259 549.227C392.059 548.447 391.968 547.937 391.968 547.937C391.968 547.937 386.917 529.202 401.452 520.299C401.452 520.299 411.973 514.103 423.529 518.99C435.086 523.897 435.741 542.158 435.812 544.193C435.83 544.556 435.958 545.174 436.121 545.955C437.776 545.591 439.392 545.174 440.955 544.719V544.646C440.918 543.428 440.719 537.704 438.993 531.328C440.264 531.237 444.916 530.802 447.079 529.238C449.585 527.425 447.26 519.34 445.624 518.577Z" fill="#008658" fill-opacity="0.4"/>
<path d="M326.248 355.248C325.203 354.97 323.996 354.645 323.221 354.732C322.67 352.994 322.585 351.933 323.01 351.521C323.485 351.486 325.034 351.34 325.841 350.756C326.778 350.077 325.908 347.059 325.299 346.774C324.762 346.53 322.213 347.921 321.554 348.295C320.788 346.896 319.723 345.656 318.257 344.888C318.481 344.366 319.221 342.488 319.052 341.258C318.855 339.813 316.875 339.392 315.979 339.989C315.247 340.471 314.832 342.975 314.711 343.855C312.316 343.583 310.227 344.114 308.909 344.608C308.489 343.821 307.574 342.205 306.982 341.819C306.188 341.302 305.287 341.54 304.344 342.837C303.395 344.14 305.627 346.569 305.627 346.569C305.653 346.583 305.673 346.583 305.702 346.596C304.271 347.966 303.456 349.588 303.023 351.181C303.003 351.175 302.982 351.155 302.968 351.147C302.968 351.147 300.37 350.415 299.012 351.147C298.273 351.547 298.504 354.653 299.555 354.939C300.6 355.218 301.807 355.543 302.582 355.456C303.135 356.848 303.088 357.513 302.98 358.653C302.505 358.688 300.769 358.85 299.962 359.434C299.025 360.113 299.893 363.131 300.504 363.416C301.041 363.66 303.592 362.269 304.249 361.895C305.015 363.294 306.08 364.534 307.545 365.3C307.322 365.822 306.582 367.7 306.753 368.93C306.95 370.375 308.93 370.796 309.826 370.199C310.56 369.717 310.972 367.213 311.094 366.332C313.489 366.603 315.578 366.074 316.896 365.58C317.316 366.367 318.231 367.981 318.823 368.369C319.615 368.885 320.518 368.648 321.461 367.351C322.41 366.048 320.178 363.619 320.178 363.619C320.152 363.605 320.132 363.605 320.103 363.592C321.534 362.222 322.349 360.6 322.782 359.007C322.802 359.013 322.823 359.033 322.837 359.041C322.837 359.041 325.435 359.773 326.793 359.041C327.53 358.639 327.301 355.533 326.248 355.248ZM316.343 359.143C315.146 360.202 311.948 360.791 309.95 359.293C308.409 358.137 307.548 354.092 309.371 351.87C310.302 350.734 312.904 349.037 315.125 350.671C318.286 352.992 317.762 357.885 316.343 359.143Z" fill="#F97DC4"/>
<path d="M437.072 636.627C436.027 636.349 434.82 636.024 434.046 636.111C433.495 634.373 433.409 633.312 433.834 632.899C434.308 632.865 435.859 632.718 436.666 632.135C437.603 631.456 436.733 628.438 436.123 628.153C435.586 627.909 433.037 629.3 432.379 629.674C431.612 628.275 430.547 627.035 429.082 626.269C429.305 625.746 430.045 623.868 429.875 622.641C429.677 621.195 427.698 620.775 426.801 621.372C426.067 621.854 425.655 624.358 425.533 625.238C423.138 624.966 421.049 625.496 419.732 625.99C419.311 625.204 418.396 623.59 417.805 623.202C417.01 622.685 416.109 622.923 415.166 624.22C414.217 625.523 416.449 627.952 416.449 627.952C416.475 627.966 416.498 627.966 416.524 627.978C415.093 629.348 414.278 630.97 413.845 632.564C413.825 632.558 413.804 632.538 413.79 632.529C413.79 632.529 411.193 631.798 409.835 632.529C409.095 632.93 409.327 636.036 410.377 636.322C411.422 636.601 412.63 636.926 413.404 636.839C413.957 638.231 413.91 638.896 413.802 640.036C413.327 640.071 411.591 640.233 410.784 640.816C409.847 641.495 410.717 644.514 411.327 644.798C411.863 645.042 414.412 643.652 415.071 643.28C415.837 644.679 416.902 645.918 418.368 646.685C418.144 647.207 417.404 649.085 417.573 650.313C417.77 651.758 419.75 652.179 420.646 651.581C421.38 651.1 421.793 648.595 421.915 647.715C424.309 647.988 426.399 647.457 427.716 646.963C428.137 647.75 429.051 649.364 429.643 649.752C430.436 650.268 431.338 650.03 432.281 648.734C433.23 647.431 430.999 645.002 430.999 645.002C430.972 644.987 430.952 644.987 430.923 644.975C432.354 643.605 433.169 641.983 433.602 640.39C433.623 640.396 433.643 640.416 433.657 640.424C433.657 640.424 436.255 641.156 437.613 640.424C438.353 640.018 438.123 636.912 437.072 636.627ZM427.165 640.522C425.968 641.581 422.77 642.17 420.772 640.672C419.232 639.516 418.37 635.471 420.193 633.249C421.124 632.113 423.726 630.415 425.947 632.05C429.108 634.371 428.584 639.266 427.165 640.522Z" fill="#F97DC4"/>
<path d="M573.065 599.801C572.02 599.523 570.813 599.197 570.039 599.285C569.488 597.547 569.402 596.486 569.827 596.073C570.303 596.039 571.852 595.892 572.659 595.309C573.596 594.63 572.726 591.612 572.116 591.327C571.579 591.083 569.03 592.473 568.372 592.847C567.605 591.449 566.54 590.209 565.075 589.443C565.298 588.92 566.038 587.04 565.87 585.812C565.672 584.367 563.693 583.947 562.796 584.544C562.063 585.026 561.65 587.528 561.528 588.41C559.133 588.138 557.044 588.668 555.727 589.162C555.306 588.376 554.391 586.762 553.8 586.373C553.005 585.857 552.105 586.095 551.161 587.392C550.212 588.695 552.444 591.124 552.444 591.124C552.47 591.138 552.493 591.138 552.519 591.15C551.088 592.52 550.273 594.142 549.84 595.736C549.82 595.73 549.8 595.709 549.785 595.701C549.785 595.701 547.188 594.968 545.83 595.701C545.09 596.102 545.322 599.208 546.373 599.494C547.417 599.773 548.625 600.098 549.399 600.01C549.952 601.403 549.905 602.068 549.798 603.208C549.322 603.242 547.586 603.405 546.779 603.988C545.842 604.667 546.712 607.686 547.322 607.97C547.858 608.214 550.407 606.824 551.066 606.45C551.832 607.848 552.897 609.088 554.363 609.855C554.139 610.377 553.399 612.255 553.568 613.485C553.765 614.93 555.745 615.351 556.641 614.753C557.375 614.271 557.788 611.767 557.91 610.887C560.304 611.157 562.394 610.629 563.711 610.133C564.132 610.92 565.046 612.536 565.638 612.922C566.431 613.438 567.333 613.2 568.276 611.903C569.226 610.601 566.994 608.172 566.994 608.172C566.967 608.157 566.947 608.157 566.918 608.145C568.349 606.775 569.165 605.153 569.597 603.559C569.618 603.566 569.638 603.586 569.652 603.594C569.652 603.594 572.25 604.328 573.608 603.594C574.346 603.192 574.116 600.086 573.065 599.801ZM563.158 603.696C561.961 604.755 558.764 605.344 556.765 603.846C555.225 602.689 554.363 598.645 556.186 596.423C557.119 595.287 559.719 593.589 561.941 595.224C565.101 597.545 564.577 602.439 563.158 603.696Z" fill="#F97DC4"/>
<path d="M408.748 337.165C408.471 336.669 408.154 336.094 407.839 335.834C408.295 334.992 408.664 334.574 408.977 334.584C409.162 334.75 409.784 335.283 410.299 335.377C410.896 335.484 411.722 334.055 411.606 333.72C411.502 333.429 410.047 332.972 409.667 332.858C409.914 332.059 409.998 331.204 409.752 330.37C410.03 330.264 411.01 329.86 411.413 329.348C411.886 328.746 411.325 327.844 410.772 327.724C410.323 327.622 409.225 328.378 408.847 328.653C408.077 327.648 407.116 327.051 406.449 326.734C406.593 326.289 406.87 325.354 406.8 324.99C406.707 324.502 406.288 324.248 405.455 324.364C404.615 324.48 404.512 326.207 404.512 326.207C404.516 326.222 404.524 326.23 404.528 326.246C403.487 326.203 402.579 326.488 401.818 326.904C401.814 326.894 401.814 326.88 401.812 326.872C401.812 326.872 401.142 325.622 400.371 325.376C399.95 325.242 398.859 326.461 399.135 326.963C399.412 327.459 399.729 328.035 400.044 328.295C399.719 329.01 399.45 329.236 398.981 329.61C398.796 329.443 398.101 328.846 397.587 328.752C396.989 328.644 396.164 330.073 396.28 330.409C396.383 330.701 397.839 331.159 398.219 331.271C397.971 332.069 397.887 332.925 398.133 333.759C397.855 333.864 396.875 334.269 396.473 334.781C395.997 335.383 396.56 336.285 397.113 336.405C397.562 336.507 398.66 335.751 399.038 335.476C399.808 336.48 400.77 337.078 401.436 337.395C401.292 337.84 401.016 338.775 401.085 339.139C401.178 339.627 401.597 339.881 402.43 339.765C403.27 339.649 403.373 337.921 403.373 337.921C403.369 337.905 403.361 337.899 403.357 337.883C404.398 337.925 405.307 337.641 406.069 337.224C406.073 337.234 406.073 337.249 406.075 337.257C406.075 337.257 406.746 338.507 407.516 338.753C407.933 338.885 409.022 337.667 408.748 337.165ZM403.664 334.84C402.827 334.773 401.438 333.779 401.278 332.478C401.154 331.474 402.369 329.675 403.873 329.553C404.642 329.492 406.231 329.856 406.424 331.291C406.699 333.332 404.656 334.917 403.664 334.84Z" fill="#F97DC4"/>
<path d="M227.136 618.228C226.859 617.732 226.542 617.157 226.227 616.896C226.684 616.055 227.052 615.636 227.365 615.646C227.55 615.813 228.172 616.346 228.686 616.439C229.284 616.547 230.109 615.118 229.993 614.782C229.89 614.492 228.434 614.034 228.054 613.921C228.302 613.122 228.384 612.266 228.14 611.433C228.418 611.327 229.398 610.922 229.8 610.41C230.274 609.809 229.713 608.906 229.16 608.786C228.711 608.684 227.613 609.441 227.235 609.715C226.465 608.711 225.503 608.113 224.837 607.796C224.981 607.351 225.257 606.416 225.188 606.052C225.095 605.564 224.676 605.31 223.843 605.426C223.003 605.542 222.9 607.27 222.9 607.27C222.904 607.286 222.912 607.292 222.916 607.308C221.875 607.266 220.966 607.55 220.204 607.967C220.2 607.957 220.2 607.943 220.198 607.934C220.198 607.934 219.529 606.684 218.757 606.438C218.336 606.304 217.245 607.524 217.521 608.026C217.798 608.522 218.115 609.097 218.43 609.357C218.105 610.073 217.836 610.298 217.367 610.672C217.18 610.506 216.487 609.908 215.972 609.815C215.375 609.709 214.549 611.136 214.665 611.471C214.769 611.762 216.224 612.221 216.604 612.333C216.356 613.132 216.275 613.988 216.519 614.821C216.241 614.927 215.261 615.331 214.858 615.843C214.383 616.445 214.946 617.348 215.499 617.468C215.948 617.569 217.046 616.813 217.424 616.539C218.194 617.543 219.155 618.14 219.822 618.457C219.678 618.903 219.401 619.838 219.47 620.201C219.564 620.689 219.983 620.943 220.816 620.828C221.656 620.712 221.759 618.984 221.759 618.984C221.755 618.97 221.747 618.962 221.743 618.945C222.784 618.988 223.692 618.703 224.454 618.287C224.459 618.297 224.459 618.311 224.461 618.319C224.461 618.319 225.129 619.569 225.902 619.815C226.318 619.949 227.41 618.73 227.136 618.228ZM222.052 615.902C221.214 615.835 219.826 614.841 219.666 613.541C219.542 612.536 220.757 610.737 222.261 610.615C223.03 610.555 224.619 610.918 224.812 612.353C225.085 614.394 223.044 615.982 222.052 615.902Z" fill="#F97DC4"/>
<path d="M446.878 490.021C445.06 490.731 442.353 490.82 440.499 489.422C438.627 488.023 437.593 483.135 439.808 480.446C440.536 479.574 442.079 478.393 443.825 478.21C443.207 476.484 442.499 474.939 441.753 473.648C441.753 473.648 439.247 473.939 435.084 474.34C433.521 475.939 432.613 477.791 432.123 479.608C432.086 479.608 432.068 479.572 432.05 479.572C432.05 479.572 428.905 478.681 427.271 479.572C426.381 480.061 426.653 483.824 427.925 484.151C429.179 484.497 430.651 484.897 431.578 484.787C432.251 486.476 432.196 487.277 432.068 488.657C431.486 488.694 429.397 488.893 428.415 489.603C427.289 490.42 428.324 494.072 429.07 494.418C429.724 494.709 432.812 493.038 433.594 492.582C434.521 494.272 435.812 495.762 437.593 496.688C437.32 497.325 436.43 499.595 436.629 501.085C436.865 502.829 439.263 503.337 440.355 502.63C441.245 502.048 441.737 499.014 441.881 497.943C444.317 498.215 446.498 497.814 448.077 497.325C447.731 494.818 447.331 492.365 446.878 490.021Z" fill="#008658" fill-opacity="0.4"/>
<path d="M323.288 632.844C327.093 632.021 337.809 630.064 338.334 630.588C338.858 631.112 342.744 637.521 338.372 638.221C334 638.92 326.599 638.975 322.961 637.631C321.469 637.08 319.42 633.682 323.288 632.844Z" fill="#D8DAAD"/>
<path d="M347.079 625.355C347.079 625.355 337.454 624.201 336.237 627.453C334.814 631.252 334.137 642.492 340.609 642.492C347.079 642.492 347.628 642.125 347.628 642.125C347.628 642.125 349.179 627.455 347.079 625.355Z" fill="#C2C490"/>
<path d="M349.178 641.098C345.855 644.422 342.251 640.356 342.491 633.911C342.767 626.435 345.837 625.341 347.081 625.36C349.048 625.388 351.097 627.091 350.965 632.205C350.833 637.32 349.178 641.098 349.178 641.098Z" fill="#D8DAAD"/>
<path d="M207.536 630.594C203.731 629.771 193.015 627.814 192.49 628.338C191.966 628.862 188.081 635.271 192.452 635.971C196.824 636.67 204.225 636.725 207.863 635.381C209.355 634.83 211.406 631.432 207.536 630.594Z" fill="#D8DAAD"/>
<path d="M183.746 623.097C183.746 623.097 193.37 621.943 194.588 625.195C196.011 628.994 196.686 640.235 190.216 640.235C183.746 640.235 183.197 639.867 183.197 639.867C183.197 639.867 181.648 625.197 183.746 623.097Z" fill="#C2C490"/>
<path d="M181.649 638.841C184.973 642.164 188.576 638.099 188.337 631.653C188.06 624.177 184.991 623.083 183.747 623.102C181.779 623.13 179.73 624.834 179.863 629.948C179.993 635.064 181.649 638.841 181.649 638.841Z" fill="#D8DAAD"/>
<path d="M484.09 346.703C485.425 344.967 489.322 340.229 489.737 340.266C490.153 340.3 494.152 341.644 492.528 343.532C490.903 345.423 487.741 348.134 485.688 348.88C484.846 349.185 482.73 348.468 484.09 346.703Z" fill="#D8DAAD"/>
<path d="M491.59 334.82C491.59 334.82 487.032 337.823 487.691 339.662C488.459 341.813 492.254 346.89 495.037 344.538C497.818 342.187 497.919 341.829 497.919 341.829C497.919 341.829 493.254 334.961 491.59 334.82Z" fill="#C2C490"/>
<path d="M498.211 340.826C497.992 343.463 494.963 343.024 492.725 340.168C490.127 336.855 491.048 335.269 491.589 334.824C492.444 334.121 493.945 334.108 495.747 336.355C497.55 338.601 498.211 340.826 498.211 340.826Z" fill="#D8DAAD"/>
<path d="M146.867 547.31L156.063 546.946C166.393 527.632 156.61 512.883 156.61 512.883H148.485C148.481 512.883 151.514 539.716 146.867 547.31Z" fill="#008658"/>
<path d="M148.48 512.884C148.48 512.884 141.64 512.552 140.732 526.057C139.604 542.841 143.074 548.993 146.864 547.31C150.655 545.625 153.086 540.349 152.588 527.866C152.09 515.382 150.308 513.195 148.48 512.884Z" fill="black" fill-opacity="0.3"/>
<path d="M314.294 630.179C310.928 634.106 290.901 650.166 294.535 663.34C298.663 678.306 340.869 690.406 340.869 690.406L323.842 721.215C323.842 721.215 250.959 709.674 258.193 660.159C258.193 660.159 264.35 628.523 278.483 615.945C283.331 611.629 295.157 611.31 301.574 613.144C311.115 615.869 318.382 625.409 314.294 630.179Z" fill="#008658"/>
<path d="M340.868 690.411C340.868 690.411 363.127 685.149 375.845 687.421C375.845 687.421 388.706 695.846 389.7 714.223C389.7 714.223 367.668 762.147 328.225 783.927C328.225 783.927 316.429 764.249 323.389 723.645C328.003 696.733 340.868 690.411 340.868 690.411Z" fill="#008658"/>
<path d="M389.71 714.216C389.71 714.216 367.67 762.132 328.221 783.918C324.223 720.975 375.846 687.414 375.846 687.414C375.846 687.414 388.71 695.845 389.71 714.216Z" fill="#008658"/>
<path d="M308.581 635.835C304.202 640.197 298.623 646.282 295.842 652.606C294.734 652.279 293.626 652.025 292.48 651.826C284.884 650.535 277.036 652.116 269.914 655.041C265.789 656.73 261.883 658.856 258.065 661.165C258.102 660.838 258.137 660.493 258.191 660.147C258.191 660.147 260.972 645.919 267.058 632.745C274.217 629.747 282.14 628.548 289.862 629.401C296.478 630.129 302.893 632.363 308.581 635.835Z" fill="#008658"/>
<path d="M320.265 682.932C316.685 685.749 313.504 689.054 310.872 692.744C306.111 699.34 303.058 707.19 302.022 715.276C290.066 710.913 275.892 703.736 266.843 692.471C267.989 691.073 269.26 689.746 270.422 688.473C276.128 682.278 282.886 677.044 290.336 673.082C292.915 671.702 295.605 670.484 298.385 669.539C303.347 674.755 312.032 679.371 320.265 682.932Z" fill="#008658"/>
<path d="M442.872 803.81C442.872 803.81 435.516 706.158 476.006 626.57C476.006 626.57 489.806 617.738 507.602 635.38C507.602 635.38 470.843 722.82 481.592 799.719L442.872 803.81Z" fill="#008658"/>
<path d="M442.874 803.806C442.874 803.806 442.376 790.378 460.739 789.669C472.878 789.199 479.726 792.522 481.592 799.716C483.419 806.755 477.004 813.353 464.548 814.674C452.83 815.918 444.084 812.103 442.874 803.806Z" fill="#008658"/>
<path d="M483.184 725.402C481.533 736.35 480.324 747.751 479.85 759.306C474.212 758.06 468.368 757.764 462.644 758.483C455.672 759.321 448.885 761.656 442.836 765.219C443.385 753.556 444.493 739.838 446.607 725.002C454.337 722.483 462.733 721.857 470.844 722.821C475.029 723.31 479.159 724.201 483.184 725.402Z" fill="#008658"/>
<path d="M498.271 661.575C495.344 670.732 492.13 681.883 489.217 694.361C480.05 691.412 470.308 690.223 460.691 691.052C458.006 691.282 455.301 691.693 452.654 692.376C455.276 681.103 458.521 669.58 462.574 658.099C474.536 656.678 486.794 657.906 498.271 661.575Z" fill="#008658"/>
<path d="M493.612 395.394C493.267 395.884 492.884 396.376 492.502 396.884C472.479 423.05 446.823 440.057 401.704 442.783C356.588 445.509 338.327 418.363 338.327 418.363C334.983 399.03 352.191 398.811 352.191 398.811C352.191 382.511 371.741 381.44 371.741 381.44C371.741 381.44 375.268 365.014 409.918 361.925C441.772 359.071 456.325 372.681 456.325 372.681C468.426 370.846 474.152 381.804 474.152 381.804C485.744 378.169 492.685 393.231 493.612 395.394Z" fill="black" fill-opacity="0.3"/>
<path d="M498.116 411.752C498.116 411.752 516.027 409.205 524.056 410.644C524.056 410.644 516.657 430.682 527.17 465.645C527.17 465.645 505.309 466.338 503.994 465.83C497.979 463.501 487.613 433.861 498.116 411.752Z" fill="#008658"/>
<path d="M524.053 410.641C524.053 410.641 532.231 412.126 534.296 425.889C536.912 443.313 534.804 465.642 527.165 465.642C515.106 465.638 511.79 418.342 524.053 410.641Z" fill="#008658"/>
<path d="M512.092 465.987C507.968 466.041 504.496 466.023 503.988 465.824C497.973 463.499 487.617 433.863 498.12 411.748C498.12 411.748 502.299 411.148 507.533 410.711C502.935 427.592 503.917 445.961 510.421 462.224C510.929 463.497 511.474 464.751 512.092 465.987Z" fill="black" fill-opacity="0.3"/>
<path d="M623.054 538.246C614.946 534.347 592.286 530.249 587.129 540.36C581.972 550.472 608.472 552.191 619.261 550.661C630.014 549.136 627.363 540.317 623.054 538.246Z" fill="#008658"/>
<path d="M613.348 551.131C609.242 551.241 604.443 551.039 600.064 550.385C600.646 544.97 600.591 539.5 599.918 534.103C604.587 533.794 609.766 534.412 614.254 535.412C615.018 540.646 614.691 546.025 613.348 551.131Z" fill="black" fill-opacity="0.4"/>
<path d="M535.834 420.966C535.834 420.966 528.562 422.781 527.399 435.387C526.956 440.198 526.846 449.809 537.875 451.398C550.642 453.24 623.498 457.907 624.09 524.401C624.09 524.405 624.083 524.409 624.083 524.409C624.512 524.933 641.544 540.416 654.982 524.405C654.982 524.405 650.53 457.758 593.454 432.088C562.291 418.073 535.834 420.966 535.834 420.966Z" fill="#008658"/>
<path d="M624.09 524.399C624.027 524.503 609.989 547.866 609.837 567.089C609.837 567.089 635.469 587.751 659.925 576.996C659.925 576.996 665.296 564.959 654.982 524.399H624.094H624.09Z" fill="#008658"/>
<path d="M602.351 436.667C593.32 442.773 586.525 452.239 583.653 462.76C573.622 458.128 563.339 455.492 554.907 453.894C556.489 443.082 560.212 432.58 565.81 423.203C574.077 424.874 583.527 427.618 593.448 432.088C596.574 433.486 599.536 435.031 602.351 436.667Z" fill="#008658"/>
<path d="M646.563 490.224C643.31 490.587 640.095 491.187 636.95 492.185C630.464 494.238 625.013 497.163 620.197 500.616C616.746 490.732 611.239 482.882 604.644 476.631C610.658 468.745 618.236 462.004 626.757 456.898C636.097 467.655 642.365 479.503 646.563 490.224Z" fill="#008658"/>
<path d="M613.228 561.601C607.455 568.502 601.288 595.727 610.61 597.491C621.763 599.603 623.043 580.468 623.474 569.579C623.944 557.761 615.057 559.412 613.228 561.601Z" fill="#008658"/>
<path d="M623.302 573.206C623.067 577.257 622.648 581.855 621.684 585.979C619.794 583.926 617.396 582.345 614.743 581.418C612.072 580.491 609.163 580.237 606.385 580.656C607.021 576.568 608.129 572.352 609.456 568.807C610.873 568.645 612.617 568.734 615.034 569.281C617.67 569.862 620.705 571.297 623.302 573.206Z" fill="black" fill-opacity="0.4"/>
<path d="M632.045 568.108C626.273 575.008 620.105 602.234 629.427 603.998C640.58 606.108 641.861 586.975 642.292 576.086C642.761 564.268 633.877 565.921 632.045 568.108Z" fill="#008658"/>
<path d="M642.122 579.712C641.884 583.763 641.467 588.361 640.504 592.485C638.613 590.432 636.217 588.85 633.562 587.924C630.891 586.997 627.983 586.743 625.204 587.161C625.84 583.074 626.948 578.858 628.275 575.315C629.692 575.153 631.436 575.242 633.853 575.787C636.489 576.37 639.524 577.805 642.122 579.712Z" fill="black" fill-opacity="0.4"/>
<path d="M648.251 569.488C644.171 577.507 644.263 605.423 653.743 605.053C665.085 604.612 662.044 585.676 660.026 574.968C657.833 563.344 649.544 566.943 648.251 569.488Z" fill="#008658"/>
<path d="M660.671 578.535C661.348 582.537 661.972 587.11 661.957 591.346C659.654 589.769 656.963 588.765 654.17 588.456C651.359 588.151 648.469 588.556 645.853 589.586C645.556 585.46 645.692 581.102 646.19 577.352C647.534 576.874 649.255 576.573 651.733 576.563C654.431 576.539 657.709 577.258 660.671 578.535Z" fill="black" fill-opacity="0.4"/>
<path d="M425.097 395.01C424.877 395.01 424.658 394.931 424.481 394.77C415.549 386.558 410.773 373.958 412.015 361.886C412.47 357.449 413.992 351.371 418.643 347.615C419.322 347.068 420.05 346.596 420.816 346.202C421.962 337.683 427.776 329.793 436.022 326.845C442.14 324.656 448.96 325.428 454.639 328.37C454.619 327.502 454.668 326.63 454.785 325.764C455.664 319.412 460.349 313.806 466.443 311.814C472.539 309.818 479.628 311.576 484.09 316.18C484.438 316.542 484.429 317.115 484.07 317.465C483.712 317.816 483.137 317.806 482.785 317.444C478.795 313.328 472.455 311.757 467.008 313.54C461.56 315.32 457.373 320.335 456.586 326.012C456.428 327.156 456.412 328.311 456.523 329.451C460.306 331.854 463.43 335.279 465.26 339.456C465.908 340.931 465.64 342.261 464.595 342.763C463.575 343.257 462.56 342.576 462.227 342.352C458.265 339.694 455.596 335.321 454.85 330.642C449.379 327.449 442.569 326.435 436.638 328.555C429.522 331.098 424.29 337.931 422.853 345.354C427.908 343.706 433.922 344.942 437.646 348.845C439.807 351.109 441.045 354.016 441.039 356.821C441.031 359.996 439.376 362.996 436.823 364.463C433.896 366.146 429.871 365.783 426.808 363.555C423.656 361.264 422.133 357.709 421.409 355.129C420.792 352.926 420.546 350.664 420.631 348.418C420.342 348.607 420.062 348.81 419.792 349.029C415.627 352.391 414.251 357.977 413.828 362.073C412.645 373.584 417.2 385.601 425.719 393.432C426.089 393.772 426.111 394.347 425.772 394.717C425.587 394.91 425.343 395.01 425.097 395.01ZM422.548 347.414C422.314 349.838 422.495 352.288 423.154 354.64C423.798 356.943 425.141 360.101 427.869 362.087C430.323 363.872 433.628 364.201 435.91 362.89C437.91 361.74 439.207 359.357 439.215 356.819C439.222 354.479 438.167 352.03 436.327 350.101C432.922 346.535 427.111 345.562 422.548 347.414ZM457.007 332.071C457.977 335.6 460.174 338.793 463.233 340.844C463.668 341.135 463.837 341.125 463.823 341.118C463.812 341.07 463.808 340.679 463.593 340.183C462.174 336.947 459.849 334.187 457.007 332.071Z" fill="#050A08"/>
<path d="M398.576 392.805C398.542 392.805 398.507 392.803 398.473 392.799C397.975 392.742 397.615 392.293 397.672 391.793C398.463 384.861 399.361 377.005 397.958 369.539C396.444 361.476 392.261 355.014 386.486 351.808C385.226 351.109 383.917 350.591 382.602 350.254C382.954 351.469 383.234 352.711 383.435 353.967C384.197 358.717 383.356 365.084 378.465 367.387C376.417 368.35 373.943 368.259 371.68 367.135C369.166 365.885 367.345 363.62 366.81 361.079C365.831 356.447 368.764 351.184 373.483 349.099C375.447 348.233 377.648 347.865 379.909 348.001C377.797 342.714 374.185 338.066 369.506 334.742C363.046 330.161 354.875 328.332 347.077 329.728C346.596 329.819 346.11 329.488 346.022 328.994C345.933 328.5 346.262 328.029 346.756 327.939C355.029 326.457 363.7 328.401 370.554 333.261C375.79 336.976 379.768 342.261 381.947 348.249C383.785 348.593 385.622 349.249 387.366 350.219C393.617 353.687 398.127 360.606 399.743 369.204C401.196 376.938 400.282 384.938 399.477 391.998C399.424 392.463 399.03 392.805 398.576 392.805ZM379.016 349.792C377.323 349.792 375.691 350.113 374.217 350.764C370.252 352.514 367.78 356.882 368.587 360.705C369.001 362.677 370.497 364.519 372.489 365.508C374.252 366.385 376.148 366.474 377.693 365.746C381.669 363.872 382.307 358.386 381.64 354.258C381.403 352.77 381.047 351.306 380.585 349.882C380.059 349.821 379.537 349.792 379.016 349.792Z" fill="#050A08"/>
<path d="M145.123 518.182C145.123 518.182 121.882 512.893 117.794 517.889C112.455 524.414 113.024 538.785 117.794 541.738C122.565 544.692 145.123 542.031 145.123 542.031C145.123 542.031 151.709 529.083 145.123 518.182Z" fill="#E02424"/>
<path d="M120.972 524.233C120.822 524.233 120.672 524.197 120.533 524.118C120.107 523.874 119.942 523.349 120.174 522.916C120.413 522.459 122.877 518.524 134.555 520.861C135.048 520.959 135.368 521.439 135.268 521.93C135.168 522.424 134.672 522.743 134.201 522.642C123.869 520.577 121.787 523.758 121.767 523.79C121.59 524.073 121.285 524.233 120.972 524.233Z" fill="#F5F5F5"/>
<path d="M373.674 397.072C373.674 397.072 382.209 376.955 413.459 377.618C444.711 378.28 454.918 389.785 454.918 389.785C454.918 389.785 432.293 409.378 418.666 410.182C405.039 410.987 373.674 397.072 373.674 397.072Z" fill="#050A08"/>
<path d="M474.152 381.797C463.013 401.058 444.097 421.736 407.467 421.736C373.016 421.718 352.193 398.806 352.193 398.806C352.193 382.506 371.743 381.435 371.743 381.435C383.709 401.184 408.443 400.072 408.443 400.072C437.085 399.466 456.328 372.676 456.328 372.676C468.428 370.841 474.152 381.797 474.152 381.797Z" fill="#008658"/>
<path d="M521.844 631.57C520.633 633.387 517.907 649.437 517.907 649.437H547.889L550.009 633.388L521.844 631.57Z" fill="#008658"/>
<path d="M520.332 660.946H546.679L547.891 649.438H517.909L520.332 660.946Z" fill="#008658"/>
<path d="M550.009 633.383L552.826 649.433L546.68 660.941L547.891 649.433L550.009 633.383Z" fill="#008658"/>
<path d="M240.226 653.281C239.571 654.263 238.098 662.936 238.098 662.936H254.298L255.444 654.263L240.226 653.281Z" fill="#A6C0D8"/>
<path d="M239.41 669.155H253.644L254.299 662.938H238.101L239.41 669.155Z" fill="#008658"/>
<path d="M255.445 654.266L256.968 662.939L253.645 669.157L254.299 662.939L255.445 654.266Z" fill="#008658"/>
<path d="M418.765 675.945C418.11 676.927 416.637 685.6 416.637 685.6H432.837L433.983 676.927L418.765 675.945Z" fill="#A6C0D8"/>
<path d="M417.948 691.812H432.184L432.839 685.594H416.639L417.948 691.812Z" fill="#008658"/>
<path d="M433.984 676.93L435.507 685.603L432.186 691.821L432.84 685.603L433.984 676.93Z" fill="#008658"/>
<path d="M261.602 479.991L262.123 497.899L251.197 500.316V513.91L262.564 515.266L263.576 524.464L251.988 526.663L251.195 542.107L264.464 544.636V556.606L251.309 559.081L251.197 572.694L262.956 577.099L262.418 584.666C262.123 588.817 264.753 592.61 268.751 593.762C280.085 597.029 302.298 601.773 309.947 591.573C315.228 584.532 322.96 528.803 312.64 487.207C311.292 481.778 306.715 477.772 301.149 477.211C287.11 475.798 261.247 474.001 261.602 479.991Z" fill="#008658"/>
<path d="M272.97 594.918C272.37 594.753 271.789 594.609 271.226 594.465C277.35 569.843 277.332 530.16 271.171 476.047C271.752 475.992 272.37 475.956 272.988 475.938C279.165 530.158 279.147 570.024 272.97 594.918Z" fill="#A6C0D8"/>
<path d="M357.065 673.62C354.682 673.62 352.312 673.005 350.276 671.757C349.686 671.395 349.133 670.984 348.619 670.533C347.41 670.996 346.141 671.208 344.875 671.153C341.745 671.004 338.738 669.157 336.832 666.209C334.923 663.262 334.468 659.764 335.612 656.849C335.756 656.487 336.163 656.311 336.523 656.453C336.882 656.595 337.061 657.002 336.921 657.361C335.939 659.857 336.348 662.878 338.011 665.447C339.673 668.016 342.265 669.624 344.942 669.752C345.806 669.799 346.672 669.681 347.511 669.429C344.787 666.356 343.578 661.996 344.572 658.016C345.113 655.853 346.692 653.207 349.367 652.863C352.278 652.487 354.686 655.121 355.453 657.79C356.317 660.801 355.53 664.24 353.353 666.994C352.404 668.195 351.265 669.169 350.024 669.87C350.339 670.118 350.67 670.35 351.013 670.559C355.034 673.025 360.52 672.724 364.352 669.826C364.595 669.643 364.829 669.447 365.057 669.244C364.097 668.484 363.221 667.577 362.469 666.547C360.162 663.39 359.378 659.648 360.319 656.28C360.988 653.88 362.831 651.499 365.413 651.542C368.09 651.603 369.838 654.266 370.382 656.874C371.285 661.187 370.033 665.779 367.224 669.039C368.74 669.943 370.413 670.468 372.092 670.529C373.742 670.59 375.427 670.228 376.997 669.494C376.826 669.372 376.657 669.244 376.495 669.112C372.141 665.61 370.769 658.992 373.368 654.046C374.436 652.016 376.554 649.837 379.294 649.82C379.304 649.82 379.316 649.82 379.326 649.82C382.505 649.82 384.816 652.755 385.552 655.939C385.692 653.31 386.751 650.936 389.123 650.463C391.589 649.969 393.646 651.961 394.672 653.81C397.345 658.638 396.183 665.179 392.038 668.807C392.912 669.565 393.933 670.171 395.12 670.535C399.516 671.87 404.175 669.067 406.517 665.604C409.169 661.683 409.834 656.746 410.133 652.43C410.161 652.044 410.505 651.764 410.881 651.778C411.269 651.804 411.56 652.14 411.533 652.526C411.22 657.026 410.517 662.191 407.679 666.388C405.049 670.279 399.752 673.415 394.711 671.872C393.215 671.417 391.959 670.639 390.904 669.671C387.261 672.106 382.294 672.34 378.405 670.346C376.409 671.448 374.23 672.017 372.041 671.925C370.023 671.852 368.021 671.196 366.232 670.069C365.905 670.376 365.561 670.667 365.199 670.939C362.849 672.718 359.949 673.62 357.065 673.62ZM379.806 669.464C383.04 670.807 386.938 670.531 389.908 668.651C387.31 665.618 386.215 661.435 385.776 659.049C385.568 662.219 384.133 665.35 381.716 667.821C381.117 668.431 380.479 668.98 379.806 669.464ZM349.91 654.233C349.79 654.233 349.668 654.241 349.544 654.256C347.572 654.51 346.367 656.624 345.934 658.357C345.023 661.994 346.279 666.122 348.92 668.872C350.162 668.248 351.31 667.315 352.251 666.126C354.15 663.728 354.843 660.756 354.103 658.181C353.526 656.166 351.833 654.233 349.91 654.233ZM379.322 651.227C379.314 651.227 379.306 651.227 379.298 651.227C377.178 651.241 375.482 653.032 374.604 654.703C372.307 659.075 373.521 664.927 377.369 668.023C377.692 668.283 378.031 668.521 378.381 668.736C379.208 668.21 379.993 667.575 380.712 666.84C383.233 664.262 384.57 660.91 384.381 657.64C384.2 654.548 382.216 651.227 379.322 651.227ZM365.317 652.947C363.52 652.947 362.166 654.861 361.664 656.66C360.841 659.612 361.545 662.915 363.597 665.722C364.307 666.693 365.134 667.541 366.043 668.242C368.616 665.303 369.813 661.038 369.004 657.162C368.586 655.164 367.27 652.991 365.374 652.947C365.358 652.947 365.337 652.947 365.317 652.947ZM389.855 651.796C389.701 651.796 389.548 651.81 389.394 651.841C386.786 652.361 386.747 656.372 387.091 658.418C387.455 660.583 388.467 664.872 391.038 667.815C394.762 664.622 395.821 658.79 393.441 654.495C392.662 653.093 391.292 651.796 389.855 651.796Z" fill="#050A08"/>
</g>
<defs>
<linearGradient id="paint0_linear_3207_57384" x1="-40.3323" y1="-139.585" x2="400.416" y2="461.778" gradientUnits="userSpaceOnUse">
<stop stop-color="#008658" stop-opacity="0.4"/>
<stop offset="1" stop-color="#008658" stop-opacity="0"/>
</linearGradient>
<clipPath id="clip0_3207_57384">
<rect width="1077" height="1131" fill="white" transform="translate(-85 -79)"/>
</clipPath>
</defs>
</svg>
