<svg width="992" height="1024" viewBox="0 0 992 1024" fill="none" xmlns="http://www.w3.org/2000/svg">
<g clip-path="url(#clip0_3207_57094)">
<path d="M304.128 1121.88C649.571 1121.88 929.607 1022.8 929.607 900.586C929.607 778.367 649.571 679.289 304.128 679.289C-41.3138 679.289 -321.35 778.367 -321.35 900.586C-321.35 1022.8 -41.3138 1121.88 304.128 1121.88Z" fill="white" fill-opacity="0.05"/>
<path d="M304.128 996.341C541.696 996.341 734.283 928.203 734.283 844.151C734.283 760.099 541.696 691.961 304.128 691.961C66.56 691.961 -126.027 760.099 -126.027 844.151C-126.027 928.203 66.56 996.341 304.128 996.341Z" fill="#0C1110"/>
<path d="M303.252 857.743C387.212 857.743 455.275 833.662 455.275 803.957C455.275 774.252 387.212 750.172 303.252 750.172C219.292 750.172 151.229 774.252 151.229 803.957C151.229 833.662 219.292 857.743 303.252 857.743Z" fill="white" fill-opacity="0.1"/>
<path d="M578.747 840.876C621.901 840.876 656.884 828.499 656.884 813.231C656.884 797.963 621.901 785.586 578.747 785.586C535.593 785.586 500.61 797.963 500.61 813.231C500.61 828.499 535.593 840.876 578.747 840.876Z" fill="white" fill-opacity="0.1"/>
<path d="M57.3417 807.342C88.7425 807.342 114.198 798.335 114.198 787.226C114.198 776.116 88.7425 767.109 57.3417 767.109C25.9408 767.109 0.485352 776.116 0.485352 787.226C0.485352 798.335 25.9408 807.342 57.3417 807.342Z" fill="white" fill-opacity="0.1"/>
<path d="M80.9853 851.43C80.9853 863.252 53.8973 872.836 20.4836 872.836C-12.9301 872.836 -40.0181 863.252 -40.0181 851.43C-40.0181 839.607 -12.9301 830.023 20.4836 830.023C53.8973 830.023 80.9853 839.607 80.9853 851.43Z" fill="black" fill-opacity="0.1"/>
<path d="M65.5306 844.093C89.61 844.093 109.13 837.187 109.13 828.668C109.13 820.148 89.61 813.242 65.5306 813.242C41.4513 813.242 21.9312 820.148 21.9312 828.668C21.9312 837.187 41.4513 844.093 65.5306 844.093Z" fill="white" fill-opacity="0.1"/>
<path d="M487.677 748.898L490.356 754.329L496.344 755.201L492.011 759.428L493.035 765.397L487.677 762.579L482.321 765.397L483.344 759.428L479.011 755.201L484.999 754.329L487.677 748.898Z" fill="#E88000"/>
<path d="M-15.8897 -92.3397C-15.8897 -92.3397 31.3814 -87.8288 43.887 6.54528C56.3925 100.919 10.2791 139.157 43.2292 200.13C76.1793 261.102 114.907 240.099 125.148 287.803C135.388 335.507 110.535 362.731 132.184 412.068C150.505 453.819 218.871 450.385 217.936 494.983C216.298 573.043 323.108 591.221 372.327 597.518C372.327 597.518 233.255 605.717 201.766 537.453C185.5 502.191 123.184 530.604 89.4319 499.474C46.7874 460.143 95.1621 425.043 66.9831 399.845C38.8018 374.645 -43.2708 374.59 -78.1286 305.042C-112.987 235.491 -105.47 185.437 -99.0494 150.943C-92.6278 116.452 -226.113 198.734 -288.729 2.13101L-15.8897 -92.3397Z" fill="url(#paint0_linear_3207_57094)"/>
<path d="M538.849 775.857C570.25 775.857 595.706 766.851 595.706 755.741C595.706 744.631 570.25 735.625 538.849 735.625C507.449 735.625 481.993 744.631 481.993 755.741C481.993 766.851 507.449 775.857 538.849 775.857Z" fill="black" fill-opacity="0.1"/>
<path d="M293.808 767.859C305.839 767.532 313.731 767.547 313.871 767.531L313.902 736.375C312.486 736.375 278.009 736.359 241.696 739.522C210.456 742.232 190.035 746.205 176.524 750.894C173.302 751.984 170.485 753.137 167.995 754.337C156.881 759.618 152.492 765.569 150.126 771.535C147.355 778.53 148.243 786.038 152.554 792.13C159.154 801.492 174.096 810.45 238.053 812.708C248.902 813.098 259.502 813.223 268.872 813.223C287.799 813.223 301.746 812.693 302.602 812.662L301.403 781.521C301.123 781.536 273.308 782.58 243.314 781.708C220.325 781.038 205.086 779.496 195.078 777.891C205.662 775.212 222.613 772.267 249.54 770.133C265.977 768.825 281.916 768.186 293.808 767.859Z" fill="#008658"/>
<path d="M313.903 736.375L307.91 764.135L293.808 767.859C281.916 768.186 265.978 768.825 249.541 770.133C222.613 772.267 205.663 775.212 195.078 777.891C195.078 777.891 185.615 775.508 184.837 771.629C184.837 771.629 194.705 754.119 167.995 754.337L176.525 750.894C190.035 746.205 210.457 742.232 241.696 739.522C278.009 736.359 312.486 736.375 313.903 736.375Z" fill="#008658"/>
<path d="M373.874 723.353H313.435C313.886 717.916 313.793 712.744 313.326 707.884C312.345 697.571 309.684 688.723 306.944 681.93C303.224 672.677 299.333 667.271 299.333 667.271L353.858 643.125C357.78 649.715 360.94 656.74 363.461 663.797C368.738 678.456 371.337 693.193 372.629 704.347C373.937 715.72 373.874 723.353 373.874 723.353Z" fill="#008658"/>
<path d="M363.461 663.797C351.056 677.553 324.829 681.152 306.944 681.93C303.224 672.677 299.333 667.271 299.333 667.271L353.858 643.125C357.78 649.715 360.94 656.74 363.461 663.797Z" fill="#0F1514"/>
<path d="M310.176 691.344C310.176 691.344 340.621 701.65 368.766 681.93C368.766 681.93 348.352 708.408 310.176 691.344Z" fill="#0F1514"/>
<path d="M373.874 723.353H313.434C313.886 717.916 313.792 712.744 313.325 707.884L313.901 707.65C313.901 707.65 346.386 695.094 372.628 704.347C373.936 715.719 373.874 723.353 373.874 723.353Z" fill="#008658"/>
<path d="M514.074 743.417C514.075 743.319 514.069 743.221 514.074 743.123V738.952L515.906 737.91C516.103 737.617 516.301 737.325 516.533 737.039C521.537 730.864 532.476 728.808 540.967 732.449C544.553 733.986 547.115 736.296 548.518 738.915L549.755 738.952V744.096H549.744C549.643 746.187 548.844 748.29 547.28 750.219C542.276 756.394 531.337 758.45 522.846 754.81C517.404 752.478 514.304 748.37 514.088 744.096H514.075L514.074 743.417Z" fill="#808083"/>
<path d="M516.531 732.36C511.527 738.535 514.354 746.491 522.845 750.131C531.335 753.771 542.275 751.716 547.279 745.541C552.283 739.365 549.456 731.408 540.965 727.769C532.476 724.128 521.536 726.185 516.531 732.36Z" fill="#A5A7AA"/>
<path d="M353.832 614.304C353.832 614.304 353.919 614.535 354.089 614.982C354.187 615.239 354.31 615.558 354.456 615.938C354.587 616.259 354.739 616.632 354.911 617.052C355.603 618.708 356.61 621.043 357.989 623.882C359.353 626.739 361.087 630.11 363.194 633.881C365.272 637.67 367.811 641.8 370.653 646.236C373.562 650.628 376.784 655.322 380.462 660.072C382.266 662.469 384.24 664.843 386.22 667.284C388.287 669.662 390.315 672.148 392.56 674.522C396.905 679.39 401.746 684.089 406.735 688.743C411.818 693.305 417.103 697.785 422.663 701.894L426.825 704.973C428.226 705.976 429.672 706.915 431.088 707.886C432.517 708.838 433.913 709.827 435.357 710.735C436.811 711.628 438.26 712.519 439.703 713.405C442.555 715.228 445.523 716.803 448.414 718.411C451.276 720.068 454.252 721.436 457.114 722.875C459.961 724.352 462.883 725.547 465.697 726.792C467.113 727.396 468.489 728.043 469.89 728.588C471.294 729.124 472.68 729.652 474.048 730.174C479.474 732.361 484.778 733.92 489.599 735.498C492.047 736.168 494.393 736.81 496.623 737.421C497.736 737.723 498.821 738.019 499.877 738.305C500.943 738.542 501.979 738.773 502.983 738.996C507.007 739.846 510.465 740.754 513.384 741.175C519.176 742.164 522.485 742.731 522.485 742.731L524.381 733.124C524.381 733.124 521.28 732.263 515.856 730.755C513.127 730.079 509.925 728.868 506.21 727.684C505.285 727.379 504.33 727.063 503.346 726.737C502.379 726.365 501.386 725.982 500.365 725.587C498.329 724.802 496.189 723.975 493.957 723.114C489.586 721.163 484.795 719.219 479.967 716.669C478.75 716.058 477.517 715.438 476.269 714.81C475.025 714.176 473.813 713.441 472.564 712.752C470.085 711.335 467.512 709.975 465.037 708.345C462.544 706.752 459.954 705.239 457.493 703.449C455.004 701.709 452.451 700.013 450.031 698.086C448.804 697.149 447.573 696.21 446.339 695.267C445.115 694.314 443.943 693.281 442.74 692.292C441.551 691.284 440.334 690.31 439.163 689.276L435.7 686.12C431.079 681.922 426.759 677.418 422.642 672.896C418.619 668.278 414.745 663.684 411.339 658.97C409.565 656.675 408 654.278 406.389 652.007C404.865 649.668 403.34 647.411 401.972 645.138C399.167 640.639 396.775 636.241 394.633 632.172C392.564 628.064 390.732 624.282 389.297 620.872C387.831 617.478 386.665 614.494 385.795 612.053C384.902 609.609 384.313 607.715 383.94 606.481C383.851 606.177 383.773 605.909 383.705 605.677C383.659 605.501 383.622 605.353 383.591 605.233C383.508 604.925 383.466 604.766 383.466 604.766L353.832 614.304Z" fill="#008658"/>
<path d="M521.04 736.823L523.622 738.508C523.991 737.845 524.455 737.136 524.889 736.472L525.37 735.759L525.756 735.299L526.512 734.413L526.701 734.192L526.794 734.081L526.841 734.027L527.088 733.706L527.124 733.671L527.688 733.118L528.819 732.032C531.931 729.211 535.699 726.963 539.671 725.499L554.273 716.82H573.74V727.731L570.341 732.458C570.341 732.458 569.852 732.355 568.937 732.16C568.708 732.112 568.453 732.057 568.171 731.998C567.889 731.937 567.566 731.861 567.32 731.853C566.8 731.799 566.202 731.736 565.533 731.666C564.807 731.627 564.006 731.584 563.133 731.537C562.255 731.571 561.344 731.517 560.367 731.62C558.43 731.694 556.306 732.095 554.189 732.663C552.078 733.271 549.965 734.129 548.095 735.279C546.254 736.45 544.596 737.835 543.426 739.479L543.005 740.102L542.787 740.412L542.773 740.431C543.215 739.856 542.885 740.289 542.979 740.167L542.943 740.227L542.871 740.345L542.73 740.583L542.16 741.54C542.071 741.694 541.956 741.872 541.888 742.009L541.833 742.269C541.76 742.63 541.617 742.866 541.531 743.383C541.424 743.835 541.298 744.282 541.295 744.744C541.123 746.565 541.422 748.396 542.169 750.103C542.912 751.815 544.087 753.381 545.518 754.772C545.846 755.141 546.268 755.448 546.672 755.767C547.04 756.115 547.511 756.384 547.933 756.694C548.332 757.028 548.872 757.235 549.323 757.526L549.499 757.629L549.586 757.682L549.63 757.709C549.437 757.632 550.091 757.897 549.205 757.54L549.242 757.557L549.848 757.827L551.053 758.363C551.235 758.442 551.49 758.562 551.613 758.607L551.896 758.702C552.083 758.769 552.267 758.843 552.449 758.924C552.592 759.012 552.874 759.093 553.149 759.174L553.955 759.43C555.047 759.729 556.156 759.981 557.285 760.153C558.776 760.376 560.281 760.461 561.75 760.45L561.533 760.252L585.185 747.703V758.614C585.185 758.614 585.005 759.017 584.594 759.768C584.373 760.136 584.177 760.634 583.784 761.15C583.389 761.675 582.935 762.278 582.426 762.954C581.84 763.596 581.146 764.298 580.343 765.047C579.909 765.404 579.457 765.775 578.99 766.158C578.749 766.35 578.503 766.546 578.254 766.744C577.98 766.923 577.703 767.105 577.42 767.291C575.199 768.833 572.24 770.257 568.683 771.391C565.123 772.509 560.904 773.279 556.303 773.344C555.159 773.326 553.98 773.363 552.8 773.268C551.625 773.168 550.413 773.1 549.222 772.908C548.624 772.812 548.024 772.714 547.421 772.617C546.822 772.519 546.221 772.424 545.524 772.238C544.854 772.064 544.182 771.888 543.505 771.71L542.495 771.428L541.807 771.212L540.516 770.797L539.867 770.589L539.827 770.576L539.327 770.374L539.223 770.329L539.014 770.238L538.596 770.056C537.495 769.551 536.323 769.107 535.287 768.5C533.131 767.372 531.103 766.044 529.35 764.522C525.764 761.521 523.199 757.814 521.904 753.912C521.429 752.373 521.158 750.806 521.071 749.242L521.035 749.201V736.823H521.04Z" fill="#008658"/>
<path d="M573.739 716.816C573.739 716.816 573.344 716.584 572.603 716.146C572.418 716.037 572.211 715.915 571.983 715.781C571.756 715.647 571.53 715.501 571.137 715.344C570.418 715.029 569.572 714.668 568.598 714.27C567.666 713.949 566.613 713.6 565.435 713.259C564.831 713.114 564.204 712.965 563.553 712.809C563.223 712.734 562.887 712.656 562.545 712.58C562.196 712.527 561.84 712.473 561.479 712.417C558.587 711.923 555.158 711.717 551.42 712.01C547.68 712.278 543.622 713.082 539.673 714.583C535.701 716.048 531.933 718.297 528.821 721.117L527.69 722.204L527.126 722.757L527.09 722.792L526.843 723.113L526.796 723.167L526.703 723.278L526.515 723.499L525.758 724.385L525.372 724.845L524.891 725.558C524.273 726.502 523.584 727.546 523.212 728.411C522.765 729.316 522.329 730.233 522.052 731.188C520.76 734.977 520.701 739.077 521.909 742.998C523.204 746.901 525.769 750.607 529.355 753.609C531.108 755.131 533.136 756.458 535.292 757.586C536.328 758.193 537.5 758.637 538.601 759.142L539.02 759.324L539.228 759.415L539.332 759.46L539.832 759.662L539.873 759.675L540.522 759.883L541.812 760.298L542.5 760.514L543.51 760.796C544.186 760.972 544.858 761.148 545.529 761.324C546.226 761.51 546.827 761.605 547.426 761.703C548.03 761.801 548.631 761.898 549.227 761.994C550.418 762.186 551.63 762.254 552.806 762.354C553.984 762.449 555.162 762.412 556.308 762.431C560.909 762.364 565.127 761.594 568.688 760.477C572.245 759.343 575.204 757.919 577.425 756.377C577.707 756.191 577.985 756.009 578.259 755.83C578.508 755.631 578.754 755.436 578.996 755.244C579.464 754.859 579.915 754.489 580.348 754.134C581.151 753.384 581.846 752.683 582.431 752.04C582.94 751.364 583.394 750.761 583.79 750.236C584.182 749.72 584.378 749.222 584.599 748.854C585.008 748.102 585.19 747.7 585.19 747.7L578.066 744.646C578.066 744.646 577.697 744.849 577.078 745.232C576.483 745.629 575.507 746.131 574.342 746.731C573.685 746.98 573.051 747.302 572.315 747.594C571.526 747.84 570.771 748.167 569.863 748.384C568.14 748.91 566.111 749.272 563.97 749.444C561.83 749.622 559.541 749.572 557.288 749.236C556.16 749.064 555.05 748.812 553.959 748.513L553.153 748.257C552.876 748.176 552.595 748.095 552.451 748.007C552.269 747.926 552.085 747.852 551.898 747.785L551.615 747.689C551.493 747.644 551.238 747.524 551.055 747.444L549.85 746.91L549.244 746.64L549.207 746.623C550.094 746.98 549.44 746.715 549.632 746.791L549.588 746.765L549.501 746.714L549.325 746.611C548.874 746.321 548.334 746.112 547.935 745.78C547.513 745.47 547.043 745.201 546.676 744.854C546.271 744.534 545.85 744.227 545.521 743.858C544.091 742.467 542.916 740.901 542.173 739.189C541.424 737.482 541.126 735.651 541.298 733.83C541.301 733.368 541.428 732.922 541.535 732.469C541.621 731.952 541.764 731.716 541.837 731.355L541.891 731.095C541.96 730.958 542.075 730.78 542.164 730.626L542.733 729.669L542.875 729.431L542.947 729.313L542.982 729.254C542.889 729.375 543.218 728.942 542.777 729.517L542.791 729.498L543.007 729.191L543.428 728.568C544.6 726.925 546.256 725.541 548.097 724.368C549.965 723.22 552.08 722.36 554.191 721.753C556.308 721.182 558.432 720.784 560.369 720.709C561.346 720.606 562.255 720.661 563.135 720.626C564.008 720.673 564.811 720.717 565.535 720.756C566.204 720.826 566.802 720.888 567.322 720.943C567.568 720.952 567.891 721.028 568.173 721.087C568.455 721.147 568.71 721.201 568.939 721.249C569.854 721.444 570.343 721.547 570.343 721.547L573.739 716.816Z" fill="black" fill-opacity="0.4"/>
<path d="M514.074 732.512C514.075 732.414 514.069 732.316 514.074 732.217V728.047L515.906 727.005C516.103 726.712 516.301 726.419 516.533 726.133C521.537 719.957 532.476 717.903 540.967 721.542C544.553 723.079 547.115 725.389 548.518 728.008L549.755 728.047V733.191H549.744C549.643 735.282 548.844 737.385 547.28 739.313C542.276 745.489 531.337 747.545 522.846 743.904C517.404 741.572 514.304 737.464 514.088 733.191H514.075L514.074 732.512Z" fill="#808083"/>
<path d="M516.531 721.461C511.527 727.637 514.354 735.592 522.845 739.233C531.335 742.872 542.275 740.817 547.279 734.642C552.283 728.467 549.456 720.51 540.965 716.87C532.476 713.23 521.536 715.286 516.531 721.461Z" fill="#A5A7AA"/>
<path d="M523.413 722.843C520.678 726.218 522.223 730.566 526.862 732.553C531.502 734.543 537.479 733.419 540.212 730.045C542.947 726.671 541.401 722.323 536.763 720.335C532.124 718.346 526.146 719.469 523.413 722.843Z" fill="#404041"/>
<path d="M93.0218 774.036C93.0203 773.938 93.0265 773.84 93.0218 773.742V769.571L91.1898 768.529C90.9921 768.236 90.7945 767.943 90.5625 767.657C85.5584 761.481 74.6192 759.425 66.1284 763.066C62.5422 764.603 59.9802 766.914 58.5778 769.532L57.3403 769.571V774.715H57.3512C57.4524 776.806 58.2509 778.909 59.8136 780.837C64.8178 787.013 75.757 789.069 84.2478 785.428C89.6893 783.096 92.7884 778.988 93.0063 774.715H93.0187V774.036H93.0218Z" fill="#808083"/>
<path d="M90.5644 762.985C95.5685 769.16 92.7419 777.116 84.2511 780.756C75.7604 784.396 64.8212 782.341 59.817 776.166C54.8128 769.99 57.6394 762.033 66.1302 758.394C74.621 754.753 85.5602 756.81 90.5644 762.985Z" fill="#A5A7AA"/>
<path d="M253.26 644.924C253.26 644.924 253.182 645.158 253.011 645.594C252.902 645.859 252.778 646.171 252.637 646.56C252.513 646.872 252.357 647.246 252.186 647.666C251.486 649.318 250.489 651.654 249.104 654.49C247.734 657.356 246.007 660.721 243.905 664.491C242.255 667.482 240.341 670.691 238.209 674.087C237.633 674.99 237.041 675.91 236.45 676.844C233.539 681.237 230.317 685.942 226.628 690.693C224.823 693.077 222.861 695.46 220.885 697.906C218.814 700.274 216.775 702.767 214.534 705.134C210.191 710.01 205.351 714.699 200.37 719.357C195.28 723.922 189.988 728.393 184.431 732.505L180.275 735.59C178.874 736.587 177.427 737.522 176.01 738.503C174.578 739.453 173.177 740.435 171.745 741.354C170.282 742.242 168.835 743.13 167.387 744.018C164.539 745.84 161.581 747.414 158.686 749.018C155.822 750.685 152.849 752.041 149.985 753.489C147.137 754.969 144.211 756.153 141.393 757.399C139.977 758.007 138.607 758.661 137.206 759.207C135.806 759.736 134.42 760.266 133.051 760.78C127.618 762.976 122.311 764.534 117.501 766.108C115.042 766.778 112.707 767.416 110.466 768.039C109.36 768.335 108.271 768.631 107.212 768.912C106.154 769.161 105.111 769.379 104.115 769.613C100.084 770.454 96.6281 771.373 93.7174 771.794C93.484 771.84 93.2505 771.872 93.017 771.903C92.9081 771.934 92.8147 771.95 92.7213 771.95C90.4488 772.339 88.6121 772.651 87.2579 772.884C86.791 772.962 86.4018 773.04 86.0594 773.087C85.7481 773.149 85.499 773.18 85.2967 773.211C84.8453 773.289 84.6118 773.336 84.6118 773.336L83.9425 769.971L83.7402 768.943L82.7129 763.74C82.7129 763.74 83.3666 763.553 84.5963 763.21C84.8453 763.148 85.1099 763.07 85.4057 762.992C86.4796 762.696 87.8494 762.307 89.5149 761.855C90.0596 761.699 90.6355 761.543 91.2426 761.372C91.7251 761.247 92.2232 761.107 92.7368 760.951C92.8302 760.936 92.9236 760.905 93.017 760.873C95.3362 760.188 97.9512 759.238 100.893 758.303C101.811 757.991 102.761 757.68 103.741 757.353C104.722 756.979 105.703 756.589 106.73 756.2C108.769 755.405 110.901 754.58 113.143 753.723C117.517 751.776 122.295 749.828 127.12 747.274C128.35 746.666 129.579 746.043 130.825 745.42C132.07 744.781 133.284 744.049 134.529 743.363C137.004 741.946 139.588 740.591 142.063 738.955C144.553 737.366 147.137 735.855 149.596 734.063C152.087 732.318 154.639 730.62 157.068 728.689C158.297 727.754 159.527 726.819 160.756 725.885C161.986 724.919 163.153 723.891 164.352 722.909C165.551 721.897 166.765 720.915 167.932 719.887L171.403 716.725C176.01 712.534 180.337 708.032 184.462 703.499C188.478 698.888 192.354 694.292 195.762 689.587C197.537 687.282 199.093 684.883 200.712 682.608C202.238 680.272 203.763 678.013 205.133 675.754C207.934 671.252 210.316 666.859 212.464 662.777C213.413 660.908 214.3 659.101 215.141 657.372C216.122 655.3 217.024 653.337 217.803 651.483C219.266 648.087 220.433 645.096 221.305 642.666C222.192 640.22 222.783 638.319 223.157 637.089C223.25 636.793 223.328 636.512 223.391 636.294C223.437 636.107 223.468 635.967 223.499 635.842C223.593 635.531 223.624 635.375 223.624 635.375L253.26 644.924Z" fill="#008658"/>
<path d="M86.0543 767.434L83.4721 769.119C83.1032 768.456 82.6393 767.747 82.2051 767.083L81.7241 766.37L81.3381 765.91L80.5816 765.024L80.3933 764.803L80.2999 764.692L80.2532 764.637L80.0057 764.317L79.9715 764.282L79.408 763.729L78.278 762.642C75.1665 759.822 71.3982 757.573 67.426 756.108L52.8243 747.43H33.3555V758.341L36.7549 763.067C36.7549 763.067 37.2436 762.964 38.1589 762.77C38.3877 762.721 38.6429 762.667 38.9247 762.608C39.2064 762.547 39.5302 762.47 39.7761 762.463C40.296 762.408 40.8937 762.346 41.563 762.276C42.2883 762.237 43.0899 762.193 43.9631 762.146C44.841 762.181 45.7515 762.126 46.729 762.229C48.6653 762.304 50.79 762.704 52.9068 763.273C55.0175 763.88 57.1312 764.739 59.0006 765.888C60.8419 767.06 62.4996 768.445 63.6701 770.088L64.0904 770.711L64.3067 771.018L64.3207 771.037C63.8787 770.462 64.2087 770.895 64.1153 770.774L64.1511 770.833L64.2227 770.951L64.3643 771.19L64.934 772.146C65.0227 772.3 65.1379 772.478 65.2064 772.615L65.2609 772.875C65.334 773.237 65.4772 773.472 65.5628 773.989C65.6702 774.441 65.7963 774.888 65.7994 775.351C65.9706 777.172 65.6718 779.002 64.9231 780.71C64.1807 782.422 63.0055 783.987 61.5751 785.378C61.2466 785.746 60.8248 786.054 60.4201 786.374C60.0528 786.721 59.5812 786.991 59.1593 787.301C58.7609 787.634 58.2208 787.841 57.7694 788.133L57.5935 788.235L57.5063 788.287L57.4627 788.313C57.6542 788.237 57.002 788.502 57.8877 788.145L57.8503 788.162L57.2448 788.432L56.0401 788.968C55.858 789.047 55.6027 789.167 55.4797 789.212L55.1965 789.307C55.0097 789.374 54.826 789.447 54.6439 789.528C54.5007 789.617 54.219 789.698 53.9419 789.779L53.1356 790.035C52.0445 790.334 50.9347 790.586 49.8063 790.757C48.3151 790.98 46.81 791.066 45.3406 791.055L45.5585 790.859L21.9058 778.309V789.22C21.9058 789.22 22.0863 789.622 22.4957 790.374C22.7167 790.742 22.9128 791.24 23.3051 791.756C23.7004 792.281 24.1549 792.884 24.6639 793.56C25.2492 794.202 25.9434 794.904 26.7465 795.654C27.1808 796.01 27.6322 796.381 28.0991 796.764C28.3404 796.956 28.5863 797.151 28.8354 797.35C29.1093 797.529 29.3864 797.712 29.6696 797.897C31.8908 799.439 34.8497 800.863 38.4064 801.997C41.9661 803.116 46.1858 803.885 50.7869 803.952C51.9309 803.934 53.1107 803.971 54.289 803.876C55.4642 803.776 56.6767 803.708 57.8674 803.516C58.4651 803.419 59.066 803.321 59.6699 803.225C60.2691 803.127 60.87 803.032 61.5673 802.846C62.2366 802.672 62.909 802.496 63.5861 802.318L64.5962 802.036L65.2842 801.82L66.5761 801.405L67.2252 801.196L67.2657 801.184L67.7653 800.981L67.8696 800.936L68.0782 800.846L68.4969 800.664C69.5973 800.159 70.7678 799.715 71.806 799.107C73.9618 797.98 75.9899 796.651 77.7426 795.13C81.3288 792.13 83.8939 788.422 85.1889 784.52C85.6636 782.981 85.9345 781.414 86.0201 779.85L86.0559 779.809L86.0543 767.434Z" fill="#008658"/>
<path d="M33.3557 747.425C33.3557 747.425 33.7511 747.193 34.492 746.755C34.6772 746.646 34.8842 746.525 35.1115 746.391C35.3387 746.257 35.5644 746.11 35.9582 745.953C36.6773 745.638 37.5225 745.277 38.4969 744.88C39.4293 744.559 40.4815 744.21 41.6597 743.869C42.2637 743.724 42.8909 743.574 43.5416 743.418C43.8715 743.344 44.2078 743.267 44.5502 743.189C44.8989 743.137 45.2553 743.082 45.6164 743.026C48.5084 742.532 51.9374 742.326 55.6746 742.619C59.4149 742.887 63.4743 743.691 67.4216 745.193C71.3938 746.657 75.1621 748.907 78.2736 751.726L79.4052 752.812L79.9686 753.365L80.0029 753.399L80.2504 753.72L80.2971 753.775L80.3905 753.885L80.5788 754.107L81.3353 754.993L81.7213 755.453L82.2022 756.166C82.8202 757.11 83.5097 758.154 83.8817 759.019C84.3284 759.924 84.7643 760.841 85.0413 761.796C86.3332 765.585 86.3924 769.685 85.1845 773.606C83.8895 777.508 81.3244 781.214 77.7382 784.216C75.9855 785.738 73.9574 787.066 71.8016 788.193C70.765 788.801 69.5929 789.245 68.4925 789.75L68.0738 789.932L67.8652 790.022L67.7609 790.068L67.2613 790.27L67.2208 790.283L66.5717 790.491L65.2798 790.906L64.5919 791.122L63.5817 791.404C62.9061 791.58 62.2337 791.756 61.5644 791.932C60.8671 792.118 60.2663 792.213 59.667 792.311C59.0631 792.409 58.4623 792.506 57.8646 792.602C56.6739 792.794 55.4613 792.862 54.2862 792.962C53.1079 793.057 51.9296 793.02 50.784 793.038C46.1845 792.971 41.9648 792.202 38.4035 791.083C34.8469 789.949 31.888 788.525 29.6668 786.983C29.3835 786.798 29.1065 786.615 28.8325 786.436C28.5835 786.237 28.3376 786.042 28.0963 785.851C27.6278 785.466 27.1764 785.095 26.7437 784.74C25.9405 783.99 25.2463 783.289 24.6611 782.646C24.1521 781.97 23.6976 781.367 23.3022 780.842C22.91 780.326 22.7139 779.828 22.4928 779.46C22.0835 778.708 21.9014 778.306 21.9014 778.306L29.0255 775.253C29.0255 775.253 29.3944 775.455 30.0139 775.838C30.6085 776.236 31.5844 776.737 32.7503 777.337C33.4071 777.586 34.0406 777.909 34.7768 778.2C35.566 778.446 36.3209 778.773 37.2284 778.99C38.9514 779.516 40.9811 779.878 43.1213 780.051C45.2615 780.228 47.5511 780.178 49.8034 779.842C50.9319 779.671 52.0417 779.418 53.1328 779.119L53.9391 778.864C54.2161 778.783 54.4963 778.702 54.6411 778.613C54.8232 778.532 55.0068 778.459 55.1936 778.392L55.4769 778.297C55.5983 778.251 55.8536 778.131 56.0373 778.052L57.242 777.518L57.8475 777.248L57.8848 777.231C56.9976 777.588 57.6514 777.323 57.4599 777.399L57.5035 777.373L57.5907 777.321L57.7665 777.219C58.2179 776.929 58.758 776.72 59.1565 776.387C59.5783 776.077 60.0499 775.807 60.4173 775.46C60.822 775.14 61.2438 774.834 61.5722 774.464C63.0026 773.073 64.1778 771.508 64.9203 769.796C65.669 768.088 65.9678 766.258 65.795 764.437C65.7919 763.974 65.6658 763.528 65.5584 763.075C65.4728 762.558 65.3296 762.323 65.2565 761.961L65.202 761.701C65.1335 761.566 65.0183 761.386 64.9296 761.232L64.3599 760.276L64.2183 760.037L64.1467 759.919L64.1109 759.86C64.2043 759.98 63.8759 759.548 64.3163 760.123L64.3023 760.104L64.086 759.797L63.6657 759.174C62.4937 757.531 60.8375 756.147 58.9962 754.974C57.1284 753.826 55.0131 752.966 52.9024 752.359C50.7856 751.789 48.6609 751.39 46.7246 751.315C45.7471 751.212 44.8381 751.267 43.9587 751.233C43.0855 751.279 42.2823 751.323 41.5586 751.362C40.8893 751.432 40.2916 751.494 39.7717 751.549C39.5258 751.557 39.202 751.633 38.9203 751.694C38.6385 751.753 38.3833 751.807 38.1545 751.856C37.2392 752.05 36.7505 752.153 36.7505 752.153L33.3557 747.425Z" fill="#0F1514"/>
<path d="M93.0218 763.122C93.0203 763.024 93.0265 762.926 93.0218 762.827V758.657L91.1898 757.615C90.9921 757.322 90.7945 757.029 90.5625 756.743C85.5584 750.567 74.6192 748.511 66.1284 752.152C62.5422 753.689 59.9802 756.001 58.5778 758.618L57.3403 758.657V763.801H57.3512C57.4524 765.892 58.2509 767.995 59.8136 769.923C64.8178 776.099 75.757 778.155 84.2478 774.514C89.6893 772.182 92.7884 768.074 93.0063 763.801H93.0187V763.122H93.0218Z" fill="#808083"/>
<path d="M90.5639 752.07C95.5681 758.245 92.7414 766.203 84.2506 769.842C75.7599 773.481 64.8207 771.426 59.8165 765.251C54.8123 759.076 57.6389 751.118 66.1297 747.479C74.6205 743.84 85.5597 745.895 90.5639 752.07Z" fill="#A5A7AA"/>
<path d="M83.6826 753.453C86.4174 756.827 84.8717 761.175 80.2333 763.163C75.5934 765.152 69.6164 764.029 66.8831 760.655C64.1483 757.28 65.6924 752.932 70.3323 750.945C74.9708 748.955 80.9493 750.079 83.6826 753.453Z" fill="#404041"/>
<path d="M253.26 644.924C253.26 644.924 253.182 645.158 253.011 645.594C252.902 645.859 252.777 646.171 252.637 646.56C252.513 646.872 252.357 647.246 252.186 647.666C251.485 649.318 250.489 651.654 249.104 654.49C247.734 657.356 246.006 660.721 243.905 664.491C242.255 667.482 240.341 670.691 238.208 674.087C227.281 670.021 219.966 663.556 215.141 657.372C216.121 655.3 217.024 653.337 217.802 651.483C219.265 648.087 220.433 645.096 221.304 642.666C222.192 640.22 222.783 638.319 223.157 637.089C223.25 636.793 223.328 636.512 223.39 636.294C223.437 636.107 223.468 635.967 223.499 635.842C223.593 635.531 223.624 635.375 223.624 635.375L253.26 644.924Z" fill="#008658"/>
<path d="M202.754 679.492C202.754 679.492 203.003 679.866 203.46 680.461C203.928 681.053 204.596 681.868 205.446 682.764C205.885 683.2 206.352 683.672 206.864 684.141C207.376 684.613 207.939 685.074 208.528 685.54C209.08 686.044 209.779 686.412 210.394 686.892C211.062 687.303 211.729 687.738 212.423 688.13C213.141 688.486 213.818 688.914 214.547 689.232C215.283 689.525 215.957 689.948 216.679 690.201C217.4 690.455 218.081 690.757 218.738 691.036C219.415 691.243 220.053 691.477 220.647 691.698C221.24 691.921 221.789 692.126 222.287 692.268C222.784 692.416 223.216 692.578 223.576 692.704C224.293 692.967 224.711 693.147 224.711 693.147C224.711 693.147 224.278 693.229 223.512 693.319C223.129 693.36 222.661 693.418 222.124 693.447C221.584 693.503 220.975 693.514 220.317 693.453C219.655 693.419 218.931 693.379 218.172 693.288C217.423 693.147 216.621 693.005 215.807 692.799C214.992 692.604 214.168 692.299 213.334 691.997C212.492 691.707 211.707 691.23 210.89 690.838C210.109 690.375 209.345 689.867 208.627 689.333C207.938 688.752 207.254 688.193 206.681 687.552C206.065 686.959 205.569 686.291 205.117 685.655C204.649 685.033 204.3 684.373 203.986 683.775C203.681 683.169 203.441 682.597 203.274 682.072C203.075 681.566 202.993 681.083 202.899 680.709C202.751 679.939 202.754 679.492 202.754 679.492Z" fill="#0F1514"/>
<path d="M186.658 700.953C186.658 700.953 187.754 702.019 189.203 703.612C190.693 705.184 192.523 707.301 194.427 709.298C194.914 709.783 195.376 710.3 195.859 710.771C196.355 711.224 196.793 711.741 197.28 712.157C197.759 712.582 198.187 713.056 198.648 713.422C199.104 713.794 199.498 714.23 199.915 714.544C200.331 714.858 200.703 715.182 201.037 715.474C201.389 715.74 201.696 715.972 201.948 716.164C202.458 716.561 202.754 716.823 202.754 716.823C202.754 716.823 202.381 716.813 201.717 716.74C201.044 716.692 200.116 716.489 199.034 716.101C198.478 715.933 197.935 715.648 197.337 715.369C196.732 715.097 196.167 714.707 195.561 714.322C194.947 713.947 194.394 713.466 193.812 712.995C193.227 712.526 192.716 711.97 192.17 711.447C191.147 710.339 190.212 709.155 189.468 707.965C188.703 706.787 188.124 705.608 187.701 704.569C186.826 702.494 186.658 700.953 186.658 700.953Z" fill="#0F1514"/>
<path d="M167.932 719.891C167.932 719.891 168.89 720.863 170.072 722.354C171.297 723.826 172.743 725.826 174.179 727.787C174.902 728.759 175.624 729.733 176.301 730.644C177.001 731.551 177.655 732.397 178.216 733.123C178.819 733.814 179.304 734.467 179.693 734.875C180.065 735.312 180.275 735.594 180.275 735.594C180.275 735.594 179.945 735.545 179.369 735.403C179.089 735.321 178.714 735.259 178.346 735.087C177.97 734.93 177.54 734.746 177.089 734.511C176.195 734.036 175.215 733.364 174.281 732.526C173.347 731.688 172.46 730.689 171.67 729.627C170.905 728.551 170.217 727.424 169.691 726.31C169.147 725.206 168.758 724.12 168.49 723.168C167.932 721.271 167.932 719.891 167.932 719.891Z" fill="#0F1514"/>
<path d="M149.596 734.062C149.596 734.062 150.41 734.982 151.328 736.396C151.806 737.097 152.313 737.923 152.821 738.812C153.338 739.694 153.842 740.649 154.352 741.584C154.847 742.52 155.341 743.456 155.805 744.333C156.022 744.785 156.272 745.176 156.482 745.584C156.684 746.003 156.922 746.337 157.111 746.703C157.305 747.066 157.525 747.338 157.697 747.634C157.876 747.924 158.041 748.172 158.2 748.356C158.502 748.751 158.686 749.019 158.686 749.019C158.686 749.019 158.395 748.994 157.865 748.877C157.596 748.824 157.272 748.737 156.949 748.563C156.62 748.402 156.194 748.243 155.844 747.965C155.481 747.703 155.028 747.435 154.668 747.072C154.298 746.718 153.878 746.344 153.537 745.91C152.808 745.061 152.145 744.078 151.605 743.046C150.511 740.984 149.859 738.753 149.659 737.015C149.414 735.287 149.596 734.062 149.596 734.062Z" fill="#0F1514"/>
<path d="M130.825 745.422C130.825 745.422 131.502 746.288 132.195 747.593C132.929 748.891 133.664 750.642 134.333 752.36C134.651 753.216 134.968 754.072 135.267 754.875C135.55 755.68 135.834 756.411 136.087 757.048C136.354 757.674 136.601 758.226 136.833 758.585C137.06 758.952 137.208 759.209 137.208 759.209C137.208 759.209 136.951 759.195 136.472 759.089C136.223 759.044 135.947 758.942 135.659 758.779C135.356 758.629 135.001 758.448 134.704 758.179C134.031 757.691 133.378 756.987 132.83 756.171C132.255 755.358 131.804 754.426 131.429 753.474C130.697 751.561 130.409 749.547 130.465 748.008C130.478 746.475 130.825 745.422 130.825 745.422Z" fill="#0F1514"/>
<path d="M109.646 755.07C109.646 755.07 110.28 755.782 110.892 756.852C111.549 757.918 112.17 759.353 112.661 760.806C113.147 762.263 113.513 763.735 113.687 764.947C113.802 765.536 113.846 766.075 113.897 766.452C113.935 766.838 113.936 767.084 113.936 767.084C113.936 767.084 113.721 766.992 113.376 766.788C113.024 766.587 112.574 766.254 112.109 765.787C111.149 764.872 110.241 763.386 109.71 761.795C109.183 760.202 109.011 758.519 109.153 757.231C109.25 755.949 109.646 755.07 109.646 755.07Z" fill="#0F1514"/>
<path d="M384.037 592.319C395.297 624.538 368.642 663.161 324.507 678.612C280.37 694.062 235.474 680.484 224.214 648.267C217.545 629.18 224.196 607.823 239.918 590.388C250.705 578.409 265.781 568.279 283.751 561.99C301.719 555.699 319.818 554.216 335.714 556.854C358.865 560.68 377.367 573.233 384.037 592.319Z" fill="#008658"/>
<path d="M363.936 582.887C373.084 609.061 351.422 640.458 315.558 653.012C279.694 665.567 243.202 654.526 234.056 628.352C229.744 616.014 232.283 602.517 239.916 590.388C250.703 578.409 265.779 568.279 283.749 561.99C301.718 555.699 319.817 554.216 335.712 556.854C349.235 561.577 359.625 570.549 363.936 582.887Z" fill="black" fill-opacity="0.4"/>
<path d="M338.852 502.758L321.332 523.198L328.937 524.854L318.387 545.598L338.618 521.838L330.507 520.071L338.852 502.758Z" fill="#E88000"/>
<path d="M299.258 708.345L274.057 698.906L275.117 706.624L252.027 703.84L281.276 714.687L280.144 706.455L299.258 708.345Z" fill="#E88000"/>
<path d="M637.781 755.43L610.951 757.475L615.157 764.03L593.039 771.224L624.132 768.752L619.646 761.762L637.781 755.43Z" fill="#E88000"/>
<path d="M543.783 781.226L517.917 773.805L519.582 781.413L496.344 780.458L526.355 788.965L524.58 780.849L543.783 781.226Z" fill="#E88000"/>
<path d="M292.254 720.203L275.043 720.216L279.017 725.302L265.852 729.39L285.78 729.301L281.54 723.875L292.254 720.203Z" fill="#E88000"/>
<path d="M307.051 487.844L303.253 514.504L310.556 511.809L312.797 534.977L317.101 504.059L309.312 506.932L307.051 487.844Z" fill="#E88000"/>
<path d="M160.676 672.046L186.084 663.184L180.341 657.928L199.877 645.297L170.455 655.666L176.582 661.272L160.676 672.046Z" fill="#E88000"/>
<path d="M135.029 639.603L161.452 644.683L159.116 637.254L182.345 636.126L151.696 630.336L154.188 638.262L135.029 639.603Z" fill="#E88000"/>
<path d="M299.938 610.28C301.891 598.18 293.674 586.787 281.584 584.832C269.495 582.877 258.111 591.101 256.157 603.201C254.204 615.301 262.421 626.694 274.511 628.649C286.601 630.604 297.985 622.38 299.938 610.28Z" fill="black" fill-opacity="0.3"/>
<path d="M278.666 544.694L202.896 609.815C193.806 617.628 196.775 636.816 188.969 627.718L148.365 579.971C140.559 570.873 141.61 557.038 150.7 549.225L226.47 484.104C235.56 476.291 249.383 477.343 257.189 486.44L294.385 530.251C302.189 539.349 287.756 536.881 278.666 544.694Z" fill="#008658"/>
<path d="M177.753 506.958L206.147 543.969L212.467 538.535L180.203 504.852L177.753 506.958Z" fill="#0C1110"/>
<path d="M313.225 585.467L237.456 650.589C228.366 658.401 214.542 657.35 206.736 648.252L182.925 620.744C175.119 611.646 176.17 597.811 185.26 589.999L261.029 524.877C270.119 517.065 283.943 518.116 291.749 527.214L315.56 554.722C323.366 563.82 322.315 577.655 313.225 585.467Z" fill="#0F1514"/>
<path d="M305.939 578.599L231.779 642.339C226.69 646.713 218.949 646.124 214.578 641.03L191.24 614.073C186.869 608.979 187.458 601.232 192.548 596.858L266.708 533.119C271.797 528.745 279.538 529.334 283.909 534.428L307.247 561.385C311.618 566.477 311.029 574.224 305.939 578.599Z" fill="#008658" fill-opacity="0.3"/>
<path d="M183.281 502.22C185.322 504.597 185.049 508.18 182.674 510.222C180.299 512.265 176.719 511.992 174.678 509.615C172.638 507.237 172.91 503.654 175.285 501.612C177.661 499.57 181.241 499.842 183.281 502.22Z" fill="#E02424"/>
<path d="M227.223 593.444L226.821 592.977L229.572 590.61L228.205 589.02L230.955 586.654L229.589 585.063L232.339 582.695L229.607 579.516L224.107 584.25L225.473 585.839L222.723 588.207L224.088 589.797L221.338 592.164L222.704 593.754L221.896 594.449L219.954 596.12L219.146 596.817L217.779 595.226L215.029 597.593L213.664 596.002L210.912 598.37L209.547 596.779L204.046 601.514L206.778 604.693L209.528 602.327L210.895 603.917L213.645 601.55L215.012 603.14L217.762 600.774L218.164 601.241L219.129 602.364L219.529 602.832L216.78 605.198L218.145 606.788L215.395 609.155L216.762 610.745L214.011 613.112L216.744 616.293L222.245 611.559L220.879 609.97L223.629 607.602L222.262 606.011L225.013 603.645L223.646 602.054L224.454 601.359L226.396 599.688L227.204 598.992L228.571 600.582L231.321 598.216L232.688 599.806L235.438 597.438L236.805 599.029L242.305 594.295L239.572 591.114L236.822 593.482L235.455 591.891L232.705 594.257L231.34 592.668L228.589 595.035L228.188 594.567L227.223 593.444Z" fill="#F5F5F5"/>
<path d="M266.366 559.757L265.964 559.289L268.715 556.923L267.348 555.332L270.098 552.966L268.732 551.376L271.484 549.008L268.751 545.828L263.25 550.562L264.616 552.151L261.866 554.519L263.231 556.11L260.481 558.476L261.847 560.067L261.04 560.761L259.097 562.433L258.289 563.129L256.923 561.539L254.172 563.905L252.807 562.315L250.057 564.682L248.69 563.092L243.189 567.826L245.921 571.006L248.671 568.639L250.038 570.23L252.788 567.862L254.155 569.453L256.905 567.086L257.307 567.554L258.272 568.677L258.674 569.143L255.923 571.51L257.288 573.101L254.538 575.467L255.905 577.058L253.154 579.424L255.887 582.605L261.388 577.871L260.022 576.28L262.772 573.914L261.405 572.324L264.156 569.957L262.789 568.367L263.597 567.672L265.539 566L266.347 565.304L267.714 566.895L270.464 564.528L271.831 566.119L274.581 563.751L275.948 565.341L281.449 560.607L278.715 557.426L275.965 559.794L274.598 558.203L271.848 560.57L270.483 558.981L267.733 561.347L267.331 560.88L266.366 559.757Z" fill="#F5F5F5"/>
<path d="M228.068 615.243L230.802 618.424L259.915 593.369L267.341 602.012L270.091 599.646L271.458 601.236L274.208 598.87L275.575 600.46L281.075 595.726L286.576 590.992L285.21 589.401L287.96 587.035L286.593 585.445L288.877 583.48L281.451 574.837L278.717 571.656L228.068 615.243ZM282.008 586.622L279.726 588.587L281.093 590.177L278.342 592.544L275.592 594.91L274.225 593.319L271.475 595.686L265.415 588.633L269.307 585.284L271.648 588.01L274.398 585.644L272.057 582.918L275.948 579.568L282.008 586.622Z" fill="#F5F5F5"/>
<path d="M362.111 620.165C366.546 625.349 364.592 634.304 357.75 640.166C350.908 646.028 341.766 646.576 337.332 641.392C332.897 636.207 334.849 627.253 341.693 621.391C348.537 615.53 357.678 614.981 362.111 620.165Z" fill="#0F1514"/>
<path d="M357.779 623.112C361.046 626.933 359.608 633.532 354.565 637.852C349.522 642.172 342.785 642.577 339.517 638.756C336.248 634.934 337.688 628.335 342.731 624.014C347.774 619.697 354.512 619.292 357.779 623.112Z" fill="#F5F5F5"/>
<path d="M556.542 788.549C556.452 788.191 547.231 751.899 531.352 715.678C512.712 673.157 492.261 647.862 475.244 646.283C438.132 642.826 408.401 704.424 400.077 728.445L370.651 718.279C372.19 713.808 409.161 608.831 478.12 615.26C508.069 618.039 535.623 647.735 560.015 703.519C576.881 742.089 586.337 779.377 586.732 780.946L556.542 788.549Z" fill="#008658"/>
<path d="M554.507 777.277C554.507 777.277 577.855 781.841 584.86 774.797C584.86 774.797 628.442 780.994 637.781 822.276C637.781 822.276 619.881 842.528 580.968 833.181C542.055 823.834 532.716 812.929 532.716 812.929C532.716 812.929 529.603 796.148 554.507 777.277Z" fill="#008658"/>
<path d="M555.286 781.383C555.286 781.383 538.943 790.34 536.997 812.15C536.997 812.15 588.199 843.515 620.496 827.158C620.496 827.158 614.434 797.642 577.856 784.888C577.856 784.888 563.069 785.277 555.286 781.383Z" fill="black" fill-opacity="0.4"/>
<path d="M385.2 715.867C374.879 710.195 362.042 706.831 348.13 706.813C334.218 706.794 321.372 710.123 311.037 715.769C300.912 721.288 293.202 729.03 289.221 737.999C296.287 745.567 296.392 758.796 289.537 766.535C297.855 784.285 320.874 797.065 348.01 797.101C382.18 797.146 409.905 776.977 409.938 752.033C409.956 737.257 400.237 724.118 385.2 715.867Z" fill="#008658"/>
<path d="M398.362 740.658C398.335 760.922 375.802 777.32 348.037 777.282C320.272 777.245 297.783 760.788 297.81 740.524C297.822 730.973 302.839 722.282 311.037 715.769C321.372 710.125 334.22 706.795 348.13 706.813C362.041 706.831 374.879 710.195 385.2 715.867C393.381 722.402 398.374 731.105 398.362 740.658Z" fill="black" fill-opacity="0.4"/>
<path d="M287.955 782.549C287.955 782.549 298.471 763.855 332.71 765.413C332.71 765.413 368.357 786.443 373.879 802.021C379.4 817.6 381.589 836.294 373.879 840.188C366.17 844.083 308.655 840.967 289.94 812.926C289.94 812.926 296.9 803.579 287.955 782.549Z" fill="#008658"/>
<path d="M332.71 765.414C332.71 765.414 302.87 768.53 293.272 782.161C293.272 782.161 314.514 830.385 373.88 817.533C373.88 817.533 382.134 796.571 332.71 765.414Z" fill="black" fill-opacity="0.4"/>
<path d="M184.837 771.632C184.837 771.632 182.494 770.5 178.987 769.151C177.23 768.484 175.167 767.797 172.948 767.236C171.84 766.954 170.682 766.749 169.514 766.573C168.347 766.373 167.156 766.319 165.975 766.303C164.8 766.316 163.617 766.344 162.488 766.574C161.353 766.767 160.259 767.051 159.216 767.412C158.707 767.627 158.208 767.839 157.719 768.048C157.247 768.296 156.766 768.517 156.321 768.772C155.882 769.048 155.456 769.318 155.043 769.578C154.645 769.869 154.259 770.151 153.888 770.422C153.182 771.009 152.509 771.551 151.958 772.084C151.432 772.639 150.895 773.072 150.537 773.502C149.782 774.331 149.317 774.803 149.317 774.803C149.317 774.803 149.56 774.198 150.044 773.142C150.273 772.605 150.652 772.017 151.066 771.316C151.49 770.625 152.042 769.885 152.693 769.115C153.037 768.743 153.395 768.353 153.765 767.951C154.17 767.582 154.609 767.222 155.054 766.839C155.515 766.479 156.021 766.149 156.527 765.788C157.048 765.456 157.619 765.182 158.189 764.878C159.367 764.37 160.614 763.85 161.945 763.616C163.265 763.314 164.631 763.228 165.989 763.188C167.343 763.24 168.692 763.348 169.986 763.605C171.289 763.818 172.521 764.222 173.698 764.61C174.875 765.007 175.969 765.498 176.981 765.998C178 766.484 178.92 767.026 179.75 767.551C183.089 769.642 184.837 771.632 184.837 771.632Z" fill="#0F1514"/>
<path d="M190.469 776.315C190.469 776.315 187.659 776.753 183.62 777.641C182.612 777.873 181.527 778.138 180.393 778.437C179.257 778.733 178.087 779.118 176.885 779.501C175.69 779.905 174.488 780.399 173.304 780.931C172.119 781.467 170.959 782.084 169.909 782.826C168.81 783.506 167.857 784.348 167 785.234C166.189 786.156 165.435 787.107 164.917 788.161C164.618 788.669 164.478 789.236 164.221 789.749C164.061 790.295 163.885 790.833 163.753 791.37C163.661 791.922 163.572 792.458 163.487 792.976C163.445 793.511 163.404 794.026 163.367 794.523C163.339 795.023 163.39 795.506 163.382 795.971C163.375 796.436 163.385 796.879 163.443 797.293C163.547 798.119 163.549 798.87 163.677 799.465C163.865 800.67 163.95 801.384 163.95 801.384C163.95 801.384 163.619 800.764 163.08 799.635C162.788 799.077 162.564 798.352 162.274 797.522C161.964 796.697 161.782 795.71 161.581 794.629C161.525 794.076 161.465 793.501 161.404 792.906C161.39 792.303 161.435 791.677 161.454 791.028C161.524 790.383 161.642 789.719 161.757 789.037C161.955 788.376 162.126 787.678 162.425 787.018C162.984 785.681 163.757 784.365 164.765 783.223C165.783 782.106 166.92 781.059 168.181 780.237C169.439 779.402 170.774 778.736 172.108 778.174C173.439 777.591 174.809 777.227 176.119 776.875C178.756 776.217 181.26 775.954 183.394 775.873C187.672 775.705 190.469 776.315 190.469 776.315Z" fill="#0F1514"/>
<path d="M206.434 779.391C206.434 779.391 204.899 781.26 202.792 784.049C202.283 784.754 201.733 785.518 201.15 786.326C200.575 787.133 200.034 788.019 199.455 788.911C198.367 790.732 197.305 792.718 196.647 794.771C196.278 795.791 196.097 796.832 195.939 797.852C195.884 798.868 195.788 799.884 195.987 800.837C196.127 801.798 196.416 802.705 196.751 803.562C196.958 803.978 197.16 804.381 197.357 804.772C197.573 805.157 197.817 805.515 198.035 805.874C198.524 806.548 198.988 807.188 199.455 807.713C199.943 808.212 200.317 808.732 200.705 809.069C201.441 809.79 201.861 810.239 201.861 810.239C201.861 810.239 201.307 810.019 200.34 809.572C199.845 809.366 199.311 809.005 198.672 808.614C198.04 808.214 197.364 807.684 196.678 807.04C196.351 806.701 195.991 806.358 195.649 805.97C195.336 805.559 195.012 805.127 194.703 804.663C194.136 803.705 193.576 802.626 193.303 801.404C192.962 800.2 192.878 798.898 192.928 797.599C193.039 796.31 193.272 795.013 193.689 793.799C194.097 792.582 194.614 791.419 195.224 790.348C195.802 789.255 196.527 788.294 197.202 787.359C198.603 785.525 200.116 784.016 201.492 782.833C204.238 780.447 206.434 779.391 206.434 779.391Z" fill="#0F1514"/>
<path d="M233.156 781.383C233.156 781.383 234.314 783.124 235.402 786.003C235.67 786.723 235.961 787.507 236.205 788.351C236.439 789.198 236.739 790.085 236.911 791.03C237.346 792.904 237.656 794.947 237.768 797.014C237.854 798.042 237.802 799.089 237.796 800.108C237.77 801.131 237.597 802.139 237.507 803.107C237.337 804.077 237.122 805.006 236.904 805.875C236.629 806.741 236.33 807.545 236.053 808.276C235.71 808.994 235.351 809.628 235.043 810.182C234.775 810.754 234.347 811.165 234.082 811.53C233.503 812.242 233.156 812.613 233.156 812.613C233.156 812.613 233.284 812.095 233.531 811.251C233.64 810.821 233.852 810.347 233.939 809.74C234.048 809.143 234.177 808.484 234.338 807.782C234.411 807.048 234.493 806.266 234.621 805.454C234.672 804.622 234.693 803.747 234.778 802.854C234.778 801.949 234.778 801.015 234.778 800.064C234.714 799.111 234.763 798.147 234.663 797.176C234.608 796.206 234.559 795.235 234.462 794.277C234.386 793.319 234.321 792.37 234.213 791.454C234.015 789.608 233.832 787.884 233.673 786.407C233.323 783.441 233.156 781.383 233.156 781.383Z" fill="#0F1514"/>
<path d="M260.239 782.555C260.239 782.555 261.718 784.036 263.348 786.664C263.763 787.317 264.18 788.041 264.599 788.822C264.99 789.615 265.45 790.434 265.81 791.335C266.171 792.233 266.604 793.142 266.903 794.122C267.251 795.083 267.536 796.084 267.779 797.103C268.048 798.11 268.209 799.155 268.36 800.177C268.553 801.191 268.503 802.239 268.581 803.219C268.612 804.212 268.483 805.184 268.42 806.086C268.286 806.995 268.069 807.844 267.89 808.612C267.661 809.379 267.339 810.052 267.094 810.642C266.889 811.247 266.498 811.694 266.257 812.079C265.731 812.834 265.416 813.228 265.416 813.228C265.416 813.228 265.505 812.697 265.687 811.837C265.766 811.402 265.935 810.913 265.955 810.3C266.006 809.709 266.064 809.044 266.128 808.318C266.101 807.583 266.104 806.804 266.1 805.987C266.019 805.167 265.935 804.3 265.846 803.405C265.687 802.509 265.589 801.593 265.379 800.66C265.172 799.73 265.026 798.776 264.755 797.837C264.548 796.888 264.289 795.947 264.025 795.019C263.78 794.087 263.511 793.171 263.246 792.285C262.976 791.395 262.714 790.537 262.467 789.722C262.182 788.918 261.967 788.132 261.735 787.415C260.811 784.553 260.239 782.555 260.239 782.555Z" fill="#0F1514"/>
<path d="M547.935 756.698C547.935 756.698 549.944 756.611 552.852 756.609C554.295 756.602 555.977 756.591 557.781 756.581C558.671 756.561 559.591 756.539 560.527 756.518C561.456 756.48 562.399 756.461 563.333 756.388C567.08 756.183 570.723 755.606 573.243 754.508C573.566 754.383 573.86 754.237 574.137 754.089C574.42 753.95 574.699 753.821 574.929 753.662C575.42 753.372 575.829 753.081 576.164 752.822C576.82 752.299 577.195 751.945 577.195 751.945C577.195 751.945 577.15 752.061 577.065 752.279C576.964 752.487 576.879 752.849 576.638 753.223C576.416 753.611 576.135 754.092 575.711 754.564C575.306 755.05 574.797 755.581 574.165 756.042C573.552 756.541 572.826 757.004 572.02 757.393C571.222 757.806 570.347 758.167 569.419 758.448C568.493 758.725 567.53 758.991 566.536 759.15C565.547 759.32 564.535 759.432 563.526 759.496C561.507 759.619 559.496 759.533 557.638 759.314C555.779 759.102 554.067 758.762 552.626 758.376C549.732 757.633 547.935 756.698 547.935 756.698Z" fill="#0F1514"/>
<path d="M535.689 725.978C535.689 725.978 537.576 725.185 540.424 724.314C541.847 723.862 543.511 723.387 545.295 722.913C547.077 722.432 548.977 721.944 550.876 721.483C552.771 721.028 554.666 720.572 556.442 720.145C558.209 719.704 559.847 719.282 561.233 718.868C561.917 718.643 562.546 718.441 563.095 718.234C563.632 718.011 564.099 717.807 564.474 717.606C564.818 717.382 565.136 717.223 565.294 717.058C565.475 716.903 565.573 716.821 565.573 716.821C565.553 716.802 565.45 717.329 564.879 718.075C564.586 718.428 564.205 718.848 563.71 719.254C563.219 719.661 562.642 720.091 561.977 720.494C560.662 721.318 559.039 722.091 557.264 722.762C556.372 723.086 555.457 723.442 554.505 723.716C553.558 724.015 552.585 724.264 551.613 724.51C549.664 724.987 547.693 725.342 545.835 725.598C543.978 725.859 542.233 726.01 540.729 726.07C537.727 726.216 535.689 725.978 535.689 725.978Z" fill="#0F1514"/>
<path d="M524.38 700.737C524.38 700.737 525.557 699.025 527.905 697.064C529.057 696.056 530.513 695.021 532.141 694.015C532.978 693.559 533.806 693.004 534.724 692.59C535.626 692.141 536.555 691.713 537.511 691.347C538.459 690.962 539.427 690.627 540.398 690.351C541.352 690.022 542.337 689.854 543.273 689.645C544.202 689.407 545.134 689.326 546.008 689.225C546.443 689.176 546.868 689.131 547.278 689.086C547.693 689.08 548.093 689.074 548.478 689.069C550.008 689.01 551.284 689.145 552.168 689.282C553.052 689.405 553.55 689.505 553.55 689.505C553.55 689.505 553.056 689.667 552.206 689.901C551.781 690.013 551.267 690.156 550.68 690.284C550.101 690.449 549.448 690.636 548.735 690.84C547.315 691.214 545.69 691.739 543.972 692.3C543.109 692.579 542.228 692.887 541.341 693.225C540.449 693.549 539.542 693.867 538.655 694.247C536.854 694.933 535.089 695.718 533.415 696.439C532.586 696.821 531.784 697.19 531.025 697.54C530.264 697.902 529.543 698.243 528.878 698.559C526.178 699.865 524.38 700.737 524.38 700.737Z" fill="#0F1514"/>
<path d="M511.185 674.079C511.185 674.079 511.613 672.007 513.118 669.248C513.517 668.578 513.903 667.809 514.443 667.087C514.95 666.343 515.497 665.556 516.163 664.824C516.787 664.056 517.514 663.325 518.267 662.598C519.031 661.881 519.889 661.231 520.742 660.585C521.671 660.038 522.523 659.37 523.517 658.963C524.481 658.504 525.437 658.08 526.43 657.831C526.918 657.692 527.391 657.536 527.865 657.424C528.338 657.313 528.825 657.295 529.281 657.229C530.201 657.113 531.062 657.01 531.871 657.113C532.673 657.158 533.398 657.217 534.032 657.306C534.662 657.455 535.202 657.619 535.641 657.745C536.519 658.008 536.997 658.186 536.997 658.186C536.997 658.186 536.466 658.267 535.579 658.362C535.135 658.404 534.603 658.465 534.004 658.497C533.404 658.611 532.738 658.776 532.021 658.895C531.298 658.982 530.556 659.276 529.767 659.504C529.376 659.635 528.967 659.719 528.571 659.892C528.181 660.082 527.773 660.234 527.365 660.409C526.524 660.694 525.752 661.216 524.924 661.636C524.089 662.038 523.337 662.652 522.526 663.138C521.758 663.704 520.986 664.272 520.252 664.869C519.547 665.505 518.779 666.053 518.143 666.71C517.475 667.333 516.827 667.944 516.236 668.552C515.629 669.145 515.101 669.753 514.566 670.282C513.567 671.395 512.701 672.328 512.121 673.007C511.524 673.689 511.185 674.079 511.185 674.079Z" fill="#0F1514"/>
<path d="M489.963 652.843C489.963 652.843 489.552 650.745 489.681 647.587C489.731 646.009 489.907 644.169 490.28 642.224C490.478 641.253 490.669 640.242 490.965 639.237C491.236 638.226 491.589 637.218 491.958 636.215C492.364 635.223 492.783 634.234 493.29 633.297C493.77 632.349 494.352 631.467 494.937 630.632C496.114 628.965 497.493 627.58 498.846 626.642C499.518 626.169 500.166 625.787 500.777 625.521C501.358 625.209 501.931 625.069 502.368 624.916C502.813 624.775 503.191 624.745 503.431 624.69C503.674 624.647 503.803 624.625 503.803 624.625C503.803 624.625 503.383 624.932 502.647 625.471C502.303 625.767 501.875 626.082 501.439 626.513C500.987 626.917 500.534 627.432 500.043 627.973C499.09 629.094 498.134 630.5 497.253 632.101C496.799 632.892 496.41 633.76 496 634.634C495.599 635.513 495.221 636.424 494.861 637.345C494.15 639.192 493.505 641.085 492.936 642.886C492.369 644.688 491.88 646.397 491.44 647.871C490.593 650.818 489.963 652.843 489.963 652.843Z" fill="#0F1514"/>
<path d="M466.046 645.249C466.046 645.249 464.513 643.961 462.882 641.49C462.491 640.865 462.027 640.203 461.657 639.441C461.249 638.697 460.833 637.898 460.5 637.03C459.755 635.324 459.188 633.396 458.814 631.42C458.707 630.417 458.492 629.429 458.503 628.428C458.478 627.429 458.463 626.452 458.596 625.504C458.682 624.556 458.802 623.648 459.063 622.809C459.291 621.967 459.463 621.17 459.818 620.489C460.117 619.794 460.421 619.176 460.69 618.637C461.012 618.118 461.337 617.693 461.588 617.341C462.103 616.643 462.415 616.273 462.415 616.273C462.415 616.273 462.331 616.775 462.15 617.599C462.055 618.003 461.938 618.492 461.804 619.053C461.736 619.631 461.66 620.272 461.543 620.95C461.395 621.621 461.439 622.388 461.359 623.161C461.266 623.933 461.341 624.764 461.334 625.608C461.289 626.451 461.468 627.325 461.513 628.208C461.565 629.091 461.772 629.985 461.879 630.881C462.05 631.772 462.228 632.666 462.422 633.545C462.667 634.413 462.804 635.298 463.078 636.122C463.319 636.954 463.535 637.768 463.784 638.532C464.03 639.301 464.262 640.029 464.475 640.7C465.419 643.431 466.046 645.249 466.046 645.249Z" fill="#0F1514"/>
<path d="M443.958 658.188C443.958 658.188 442.083 657.309 439.647 655.476C438.416 654.574 437.057 653.426 435.679 652.105C435.019 651.418 434.282 650.756 433.629 649.989C432.963 649.235 432.289 648.467 431.674 647.643C430.414 646.026 429.302 644.272 428.442 642.519C427.953 641.683 427.66 640.756 427.33 639.927C426.964 639.115 426.845 638.229 426.647 637.478C426.42 636.734 426.452 635.967 426.39 635.341C426.376 635.021 426.337 634.73 426.35 634.454C426.385 634.177 426.418 633.923 426.448 633.693C426.575 632.784 426.68 632.297 426.68 632.297C426.68 632.297 426.84 632.808 427.064 633.644C427.117 633.852 427.178 634.079 427.241 634.328C427.34 634.57 427.445 634.83 427.557 635.107C427.811 635.654 427.971 636.279 428.343 636.914C428.712 637.548 428.982 638.259 429.444 638.957C429.888 639.659 430.297 640.408 430.82 641.152C431.31 641.909 431.846 642.664 432.415 643.431C432.963 644.205 433.538 644.982 434.143 645.744C434.706 646.532 435.346 647.272 435.928 648.036C436.529 648.79 437.121 649.533 437.692 650.251C438.862 651.673 439.95 653.021 440.881 654.192C442.758 656.513 443.958 658.188 443.958 658.188Z" fill="#0F1514"/>
<path d="M422.581 683.25C422.581 683.25 420.459 682.876 417.648 681.374C416.934 681.02 416.197 680.575 415.429 680.083C414.675 679.572 413.863 679.044 413.098 678.405C412.339 677.76 411.511 677.134 410.784 676.375C410.012 675.66 409.302 674.864 408.611 674.049C407.9 673.252 407.294 672.367 406.686 671.511C406.046 670.676 405.612 669.72 405.09 668.873C404.558 668.027 404.24 667.098 403.857 666.273C403.457 665.453 403.219 664.615 402.987 663.853C402.757 663.091 402.527 662.406 402.419 661.766C402.293 661.132 402.214 660.572 402.144 660.118C402.013 659.203 401.968 658.68 401.968 658.68C401.968 658.68 402.263 659.13 402.729 659.915C402.958 660.309 403.241 660.783 403.529 661.334C403.818 661.886 404.245 662.461 404.619 663.121C405.015 663.771 405.42 664.479 405.915 665.191C406.413 665.899 406.861 666.684 407.423 667.433C407.984 668.182 408.513 668.986 409.132 669.742C409.755 670.496 410.314 671.315 410.989 672.043C411.617 672.811 412.269 673.557 412.94 674.269C413.589 675.001 414.26 675.694 414.915 676.363C416.241 677.684 417.517 678.896 418.654 679.908C420.923 681.933 422.581 683.25 422.581 683.25Z" fill="#0F1514"/>
<path d="M406.821 711.875C406.821 711.875 404.706 711.585 401.791 710.373C401.07 710.06 400.268 709.747 399.478 709.311C398.668 708.907 397.82 708.463 396.992 707.921C395.294 706.902 393.594 705.622 392.003 704.207C391.253 703.447 390.447 702.748 389.774 701.933C389.093 701.128 388.414 700.347 387.868 699.497C387.298 698.666 386.745 697.872 386.355 697.026C385.947 696.196 385.505 695.452 385.274 694.67C385.001 693.913 384.784 693.212 384.597 692.597C384.436 691.971 384.379 691.396 384.302 690.943C384.171 690.025 384.129 689.508 384.129 689.508C384.129 689.508 384.426 689.96 384.887 690.739C385.111 691.125 385.382 691.592 385.693 692.13C386.054 692.639 386.456 693.208 386.854 693.837C387.233 694.477 387.823 695.066 388.302 695.759C388.781 696.456 389.443 697.084 390.019 697.799C390.579 698.529 391.332 699.143 391.974 699.864C392.638 700.567 393.395 701.21 394.095 701.902C394.841 702.555 395.588 703.206 396.321 703.849C397.095 704.449 397.792 705.125 398.553 705.675C399.296 706.247 399.999 706.828 400.698 707.342C401.394 707.867 402.051 708.362 402.658 708.819C405.157 710.654 406.821 711.875 406.821 711.875Z" fill="#0F1514"/>
<path d="M356.591 535.711L358.757 540.106L363.603 540.81L360.096 544.231L360.924 549.06L356.591 546.779L352.256 549.06L353.084 544.231L349.579 540.81L354.424 540.106L356.591 535.711Z" fill="#E88000"/>
<path d="M242.305 711.953L244.983 717.384L250.972 718.255L246.639 722.482L247.661 728.452L242.305 725.634L236.948 728.452L237.972 722.482L233.637 718.255L239.627 717.384L242.305 711.953Z" fill="#E88000"/>
<path d="M248.778 689.82L250.071 692.442L252.963 692.863L250.871 694.903L251.365 697.787L248.778 696.425L246.192 697.787L246.686 694.903L244.594 692.863L247.486 692.442L248.778 689.82Z" fill="#E88000"/>
<path d="M614.828 725.805L616.53 729.258L620.339 729.813L617.583 732.5L618.233 736.298L614.828 734.505L611.42 736.298L612.071 732.5L609.314 729.813L613.123 729.258L614.828 725.805Z" fill="#E88000"/>
<path d="M652.551 771.148L653.889 773.864L656.884 774.3L654.717 776.414L655.229 779.399L652.551 777.989L649.872 779.399L650.384 776.414L648.217 774.3L651.21 773.864L652.551 771.148Z" fill="#E88000"/>
<path d="M492.011 797.258L493.35 799.975L496.344 800.409L494.178 802.523L494.69 805.508L492.011 804.1L489.332 805.508L489.844 802.523L487.678 800.409L490.672 799.975L492.011 797.258Z" fill="#E88000"/>
<path d="M652.551 730.703L655.23 736.135L661.218 737.006L656.884 741.234L657.907 747.204L652.551 744.385L647.194 747.204L648.218 741.234L643.883 737.006L649.872 736.135L652.551 730.703Z" fill="#E88000"/>
<path d="M288.03 472.875L290.341 477.561L295.509 478.312L291.77 481.96L292.653 487.11L288.03 484.679L283.408 487.11L284.291 481.96L280.552 478.312L285.72 477.561L288.03 472.875Z" fill="#E88000"/>
<path d="M345.389 478.867L346.729 481.584L349.724 482.019L347.557 484.133L348.068 487.117L345.389 485.708L342.712 487.117L343.222 484.133L341.056 482.019L344.05 481.584L345.389 478.867Z" fill="#E88000"/>
<path d="M130.976 604.234L132.402 607.127L135.591 607.59L133.283 609.841L133.828 613.02L130.976 611.519L128.125 613.02L128.67 609.841L126.361 607.59L129.551 607.127L130.976 604.234Z" fill="#E88000"/>
<path d="M105.531 644.602L108.21 650.034L114.198 650.905L109.865 655.132L110.887 661.102L105.531 658.284L100.174 661.102L101.198 655.132L96.8647 650.905L102.853 650.034L105.531 644.602Z" fill="#E88000"/>
<path d="M135.029 667.672L137.001 671.671L141.409 672.311L138.22 675.424L138.972 679.82L135.029 677.745L131.085 679.82L131.838 675.424L128.647 672.311L133.057 671.671L135.029 667.672Z" fill="#E88000"/>
<path d="M19.6357 814.609C-3.71196 814.609 -22.6392 822.399 -22.6392 831.995V847.573C-22.6392 857.185 -3.71196 864.958 19.6357 864.958C42.999 864.958 61.9262 857.185 61.9262 847.573V831.995C61.9262 822.399 42.999 814.609 19.6357 814.609Z" fill="#008658"/>
<path d="M102.351 817.459C102.351 812.175 99.3543 807.891 95.6576 807.891C95.2825 807.891 94.9182 807.945 94.5602 808.029V808.025L94.3921 808.065C94.3595 808.074 94.3252 808.079 94.2925 808.09L40.3267 821.205L50.7444 840.941L96.579 826.935L96.5775 826.924C99.8368 826.284 102.351 822.296 102.351 817.459Z" fill="#008658"/>
<path d="M19.6372 824.422C2.87821 824.422 -10.707 830.013 -10.707 836.9C-10.707 843.787 2.87821 849.367 19.6372 849.367C36.4071 849.367 49.9923 843.787 49.9923 836.9C49.9923 830.013 36.4071 824.422 19.6372 824.422Z" fill="#A5A7AA"/>
<path d="M19.6357 814.609C-3.71196 814.609 -22.6392 822.399 -22.6392 831.995C-22.6392 841.591 -3.71196 849.364 19.6357 849.364C42.999 849.364 61.9262 841.591 61.9262 831.995C61.9262 822.399 42.999 814.609 19.6357 814.609ZM19.6357 842.713C2.82539 842.713 -10.7941 837.104 -10.7941 830.203C-10.7941 823.286 2.82539 817.694 19.6357 817.694C36.4461 817.694 50.0811 823.286 50.0811 830.203C50.0811 837.104 36.4461 842.713 19.6357 842.713Z" fill="black" fill-opacity="0.4"/>
<path d="M-3.99222 837.809C-4.6195 837.809 -5.24366 837.558 -5.70438 837.063C-6.57914 836.117 -6.52933 834.646 -5.58764 833.768C-5.29502 833.495 1.67971 827.089 12.5473 826.395C13.8439 826.32 14.9443 827.29 15.0268 828.577C15.1093 829.866 14.1318 830.976 12.8461 831.059C3.70162 831.643 -2.34543 837.134 -2.40613 837.189C-2.85596 837.603 -3.42565 837.809 -3.99222 837.809Z" fill="white"/>
<path d="M23.5597 828.269C23.5597 829.597 22.1822 830.671 20.4825 830.671C18.7828 830.671 17.4053 829.597 17.4053 828.269C17.4053 826.944 18.7828 825.867 20.4825 825.867C22.1822 825.867 23.5597 826.944 23.5597 828.269Z" fill="white"/>
<path d="M378.918 466.138L378.17 384.344L357.47 395.768L340.175 327.218L341.346 422.032L363.427 409.846L378.918 466.138Z" fill="#E88000"/>
<path d="M89.2806 627.17L26.2873 575.054L48.1934 566.163L5.90256 509.531L78.7305 570.179L55.3633 579.663L89.2806 627.17Z" fill="#E88000"/>
</g>
<defs>
<linearGradient id="paint0_linear_3207_57094" x1="-93.6819" y1="-135.163" x2="347.067" y2="466.2" gradientUnits="userSpaceOnUse">
<stop stop-color="#008658" stop-opacity="0.4"/>
<stop offset="1" stop-color="#008658" stop-opacity="0"/>
</linearGradient>
<clipPath id="clip0_3207_57094">
<rect width="1077" height="1131" fill="white" transform="translate(-85 -79)"/>
</clipPath>
</defs>
</svg>
